<?xml version="1.0" standalone="no"?>
<!DOCTYPE svg PUBLIC "-//W3C//DTD SVG 1.1//EN" "http://www.w3.org/Graphics/SVG/1.1/DTD/svg11.dtd" >
<svg>
<metadata>
Created by FontForge 20090622 at Thu Apr  9 20:15:37 2015
 By deploy user
&#194;&#169; 1987, 1990, 1991, 1995, 1998, 2001, 2002 Adobe Systems Incorporated. All rights reserved.
</metadata>
<defs>
<font id="LetterGothicStd" horiz-adv-x="600" >
  <font-face 
    font-family="Letter Gothic Std"
    font-weight="400"
    font-stretch="normal"
    units-per-em="1000"
    panose-1="2 11 4 9 2 2 2 3 3 4"
    ascent="742"
    descent="-258"
    x-height="529"
    cap-height="720"
    bbox="-20 -288 620 928"
    underline-thickness="50"
    underline-position="-50"
    unicode-range="U+0020-U+FB02"
  />
<missing-glyph 
d="M50 0v700h500v-700h-500zM300 395l170 255h-340zM330 350l170 -255v510zM130 50h340l-170 255zM100 605v-510l170 255z" />
    <glyph glyph-name=".notdef" 
d="M50 0v700h500v-700h-500zM300 395l170 255h-340zM330 350l170 -255v510zM130 50h340l-170 255zM100 605v-510l170 255z" />
    <glyph glyph-name=".null" horiz-adv-x="0" 
 />
    <glyph glyph-name="nonmarkingreturn" 
 />
    <glyph glyph-name="space" unicode=" " 
 />
    <glyph glyph-name="exclam" unicode="!" 
d="M335 720l-13 -493h-40l-17 493h70zM230 53q0 28 19.5 48t47.5 20t48 -20t20 -48t-20 -47.5t-48 -19.5t-47.5 19.5t-19.5 47.5z" />
    <glyph glyph-name="quotedbl" unicode="&#x22;" 
d="M174 720h94v-111l-27 -135h-40l-27 135v111zM333 720h94v-111l-27 -135h-40l-27 135v111z" />
    <glyph glyph-name="numbersign" unicode="#" 
d="M267 805h44l-162 -901h-45l61 335h-134l8 44h134l28 157h-134l8 44h134zM329 -96h-45l165 901h44l-58 -321h135l-9 -44h-134l-28 -157h134l-8 -44h-134z" />
    <glyph glyph-name="dollar" unicode="$" 
d="M464 606l-28 -37q-58 55 -116 60v-231q71 -25 110.5 -66.5t39.5 -111.5q0 -68 -41 -109t-109 -47v-95h-47v95q-86 1 -157 71l29 35q66 -61 128 -66v260q-60 19 -99.5 60t-39.5 100q0 58 41 98t98 47v73h47v-73q77 -7 144 -63zM273 409v218q-39 -6 -65.5 -35.5
t-26.5 -70.5q0 -38 27.5 -68t64.5 -44zM320 354v-250q44 2 73.5 35.5t29.5 78.5q0 94 -103 136z" />
    <glyph glyph-name="percent" unicode="%" 
d="M130 545q0 -68 54 -68q33 0 56.5 29.5t32.5 64.5t9 67q0 28 -12.5 47t-39.5 19q-49 0 -74.5 -52t-25.5 -107zM463 734h42l-368 -734h-42zM86 553q0 70 38 125.5t105 55.5q97 0 97 -104q0 -81 -43.5 -132t-100.5 -51q-96 0 -96 106zM274 95q0 70 38 125.5t105 55.5
q97 0 97 -104q0 -81 -43.5 -132t-100.5 -51q-96 0 -96 106zM318 87q0 -68 54 -68q33 0 56.5 29.5t32.5 64.5t9 67q0 28 -12.5 47t-39.5 19q-49 0 -74.5 -52t-25.5 -107z" />
    <glyph glyph-name="ampersand" unicode="&#x26;" 
d="M394 112l-156 238q-36 -46 -50.5 -66t-33 -61t-18.5 -79q0 -53 29.5 -85.5t82.5 -32.5q97 0 146 86zM272 392l141 -230q17 57 17 193h50q-5 -157 -37 -235l86 -102l-33 -34l-78 93q-65 -91 -169 -91q-72 0 -117.5 42t-45.5 113q0 35 8 66t29.5 66t33 50.5t45.5 57.5
l11 14q-23 38 -34.5 59t-23.5 56.5t-12 66.5q0 65 32 111t95 46q48 0 80 -39t32 -92q0 -13 -2 -25.5t-4 -22.5t-8 -23.5t-8.5 -20.5t-12 -21.5l-12.5 -19t-15.5 -20.5l-14.5 -18.5t-17 -20t-16 -19.5zM264 694q-36 0 -53.5 -33t-17.5 -73q0 -44 12.5 -78t40.5 -81l23 35
l19 29l14.5 21.5t11.5 18.5t7.5 13.5t5.5 12.5t2.5 10t2 11.5t0.5 11.5v15q0 32 -18 59.5t-50 27.5z" />
    <glyph glyph-name="quotesingle" unicode="'" 
d="M253 720h94v-111l-27 -135h-40l-27 135v111z" />
    <glyph glyph-name="parenleft" unicode="(" 
d="M395 -40l-22 -29q-92 63 -138.5 173.5t-46.5 231.5q0 122 46.5 232.5t138.5 173.5l22 -30q-160 -121 -160 -376t160 -376z" />
    <glyph glyph-name="parenright" unicode=")" 
d="M205 712l22 30q92 -63 138.5 -173.5t46.5 -232.5q0 -121 -46.5 -231.5t-138.5 -173.5l-22 29q160 121 160 376q0 116 -38.5 215t-121.5 161z" />
    <glyph glyph-name="asterisk" unicode="*" 
d="M278 720h43v-197l189 56l13 -42l-195 -56l124 -157l-33 -26l-119 151l-116 -151l-34 26l121 157l-194 56l12 42l189 -56v197z" />
    <glyph glyph-name="plus" unicode="+" 
d="M566 382v-44h-244v-244h-44v244h-244v44h244v244h44v-244h244z" />
    <glyph glyph-name="comma" unicode="," 
d="M245 -111v42q61 18 78 59q-4 0 -10 -2q-1 0 -4 -0.5t-5 -0.5q-28 0 -44.5 17t-16.5 45t19.5 46.5t46.5 18.5q31 0 50.5 -24.5t19.5 -57.5q0 -50 -40.5 -89t-93.5 -54z" />
    <glyph glyph-name="hyphen" unicode="-" 
d="M418 339h-236v40h236v-40z" />
    <glyph glyph-name="period" unicode="." 
d="M233 53q0 28 19.5 48t47.5 20t48 -20t20 -48t-20 -47.5t-48 -19.5t-47.5 19.5t-19.5 47.5z" />
    <glyph glyph-name="slash" unicode="/" 
d="M175 -27h-46l296 774h46z" />
    <glyph glyph-name="zero" unicode="0" 
d="M498 360q0 -159 -24 -231q-21 -65 -65.5 -104t-108.5 -39q-62 0 -106 37t-65 98q-27 77 -27 239q0 158 24 231q21 65 65 104t109 39q62 0 106 -37t65 -98q27 -78 27 -239zM451 360q0 142 -19 206q-15 55 -48 92t-84 37q-54 0 -87.5 -40t-48.5 -100q-15 -66 -15 -195
q0 -142 19 -207q15 -54 48 -91t84 -37q54 0 87.5 40t48.5 100q15 65 15 195z" />
    <glyph glyph-name="one" unicode="1" 
d="M326 742v-702h133v-40h-317v40h137v642l-144 -45v44z" />
    <glyph glyph-name="two" unicode="2" 
d="M157 40h336v-40h-383q0 119 32.5 184.5t143.5 162.5q3 3 19.5 17t21.5 19t20.5 19t21.5 21t19 21t18.5 23l14 23t12.5 25.5t7 25.5t3 28q0 57 -33.5 91t-90.5 34q-65 0 -102.5 -43.5t-42.5 -110.5h-47q7 87 57 140.5t136 53.5q78 0 124 -45t46 -123q0 -88 -92 -178
l-66 -60q-109 -97 -141 -152.5t-34 -135.5z" />
    <glyph glyph-name="three" unicode="3" 
d="M261 369v40q67 0 114 43t47 109q0 55 -40.5 94t-97.5 39q-48 0 -87 -27.5t-63 -71.5l-40 22q30 55 81 86t113 31q76 0 128.5 -53t52.5 -127q0 -54 -31.5 -96t-83.5 -65q69 -22 108.5 -73t39.5 -121q0 -92 -60 -151t-153 -59q-69 0 -117 31t-88 93l42 25q52 -109 161 -109
q75 0 121.5 43t46.5 118q0 89 -54.5 134t-139.5 45z" />
    <glyph glyph-name="four" unicode="4" 
d="M410 734v-501h102v-40h-102v-193h-47v193h-293v35l266 506h74zM363 233v468h-2l-240 -468h242z" />
    <glyph glyph-name="five" unicode="5" 
d="M449 720v-40h-260l-24 -312q55 75 140 75q79 0 134 -59.5t55 -164.5q0 -95 -54 -162.5t-147 -67.5q-104 0 -178 108l35 27q24 -42 63.5 -68.5t85.5 -26.5q65 0 106.5 54.5t41.5 131.5q0 51 -14 89.5t-36.5 59t-45.5 30t-45 9.5q-80 0 -131 -82l-56 11l29 388h301z" />
    <glyph glyph-name="six" unicode="6" 
d="M453 230q0 74 -34.5 127t-104.5 53q-56 0 -106 -54t-50 -145q0 -71 36 -126.5t104 -55.5q78 0 116.5 59.5t38.5 141.5zM488 697l-23 -40q-51 37 -98 37q-55 0 -99.5 -37.5t-69 -94t-37 -115.5t-9.5 -108q65 111 171 111q84 0 130.5 -66t46.5 -154q0 -101 -52.5 -171
t-150.5 -70q-38 0 -70.5 15.5t-61 50t-44.5 98t-16 151.5q0 207 78 318.5t186 111.5q62 0 119 -37z" />
    <glyph glyph-name="seven" unicode="7" 
d="M103 720h378l-277 -720h-52l269 680h-318v40z" />
    <glyph glyph-name="eight" unicode="8" 
d="M127 190q0 -76 47.5 -118.5t125.5 -42.5t125.5 42.5t47.5 118.5t-48 120.5t-125 44.5t-125 -44.5t-48 -120.5zM447 545q0 69 -40 109t-108 40q-71 0 -110 -41.5t-39 -114.5q0 -65 41.5 -104t107.5 -39q68 0 108 40.5t40 109.5zM206 376q-47 20 -75 67.5t-28 101.5
q0 86 55 137.5t142 51.5q88 0 141 -51t53 -138q0 -54 -26.5 -101.5t-73.5 -67.5q126 -44 126 -186q0 -94 -57 -147.5t-163 -53.5q-108 0 -164 54t-56 147q0 141 126 186z" />
    <glyph glyph-name="nine" unicode="9" 
d="M111 23l23 40q48 -34 99 -34q54 0 98.5 37t69.5 92.5t37.5 114.5t9.5 108q-67 -111 -171 -111q-84 0 -131 66t-47 153q0 101 53 173t151 72q105 0 157 -111q35 -76 35 -207q0 -155 -49 -265q-32 -71 -87.5 -116.5t-127.5 -45.5q-66 0 -120 34zM146 490q0 -74 35 -127
t105 -53q63 0 114 64q42 56 42 135q0 72 -36.5 128.5t-104.5 56.5q-78 0 -116.5 -60.5t-38.5 -143.5z" />
    <glyph glyph-name="colon" unicode=":" 
d="M232 53q0 28 19.5 48t47.5 20t48 -20t20 -48t-20 -47.5t-48 -19.5t-47.5 19.5t-19.5 47.5zM232 404q0 28 19.5 48t47.5 20t48 -20t20 -48t-20 -47.5t-48 -19.5t-47.5 19.5t-19.5 47.5z" />
    <glyph glyph-name="semicolon" unicode=";" 
d="M245 -111v42q61 18 78 59q-4 0 -10 -2q-1 0 -4 -0.5t-5 -0.5q-28 0 -44.5 17t-16.5 45t19.5 46.5t46.5 18.5q31 0 50.5 -24.5t19.5 -57.5q0 -50 -40.5 -89t-93.5 -54zM243 404q0 28 19.5 48t47.5 20t48 -20t20 -48t-20 -47.5t-48 -19.5t-47.5 19.5t-19.5 47.5z" />
    <glyph glyph-name="less" unicode="&#x3c;" 
d="M98 360l379 360l25 -32l-340 -328l340 -328l-25 -32z" />
    <glyph glyph-name="equal" unicode="=" 
d="M566 449v-44h-532v44h532zM566 315v-44h-532v44h532z" />
    <glyph glyph-name="greater" unicode="&#x3e;" 
d="M123 720l379 -360l-379 -360l-25 32l340 328l-340 328z" />
    <glyph glyph-name="question" unicode="?" 
d="M318 224h-47v98q0 36 8 53q11 26 76 76q32 26 46.5 51t14.5 63q0 58 -33 93.5t-90 35.5q-52 0 -83.5 -31t-33.5 -82h-50q6 72 51 112.5t117 40.5q79 0 124 -46.5t45 -125.5q0 -54 -19.5 -84.5t-67.5 -68.5q-43 -34 -50.5 -51.5t-7.5 -72.5v-61zM235 53q0 28 19.5 48
t47.5 20t48 -20t20 -48t-20 -47.5t-48 -19.5t-47.5 19.5t-19.5 47.5z" />
    <glyph glyph-name="at" unicode="@" 
d="M515 110l17 -45q-124 -79 -254 -79q-50 0 -96.5 18t-87 54t-65 98t-24.5 142q0 112 38 211t111.5 162t166.5 63q113 0 194 -83t81 -219q0 -37 -8.5 -77t-25.5 -78.5t-48.5 -63t-71.5 -24.5q-31 0 -55.5 15.5t-32.5 43.5q-43 -62 -105 -62q-38 0 -61 25.5t-23 65.5
q0 44 16 93.5t42 81.5q47 58 170 58h32l-26 -156q-5 -42 -5.5 -66.5t9 -37.5t18.5 -17t22 -4q29 0 50.5 21t33 53t17 63t5.5 58q0 69 -22 123.5t-56.5 85t-71.5 46t-73 15.5q-69 0 -123.5 -38t-86 -98t-48 -126.5t-16.5 -131.5q0 -73 21 -128.5t56 -86t73.5 -45t80.5 -14.5
q102 0 232 84zM363 403l10 67q-62 -4 -96 -31q-26 -20 -45.5 -70t-19.5 -86q0 -22 11 -39.5t31 -17.5q34 0 64 39.5t45 137.5z" />
    <glyph glyph-name="A" unicode="A" 
d="M301 749l241 -749h-53l-65 219h-245l-66 -219h-52zM301 621l-112 -362h225z" />
    <glyph glyph-name="B" unicode="B" 
d="M166 40h151q52 0 96.5 38t44.5 110q0 69 -45.5 118t-122.5 49h-124v-315zM325 0h-206v720h176q80 0 129 -47.5t49 -128.5q0 -112 -115 -163q70 -20 108.5 -69.5t38.5 -121.5q0 -80 -48.5 -135t-131.5 -55zM166 395h73q90 0 138.5 41t48.5 111q0 63 -34.5 98t-118.5 35
h-107v-285z" />
    <glyph glyph-name="C" unicode="C" 
d="M492 584h-47q-2 47 -36.5 78.5t-82.5 31.5q-180 0 -180 -339q0 -329 174 -329q56 0 94.5 37t40.5 93h47q-8 -80 -57 -125t-129 -45q-67 0 -113.5 35t-68 94t-30 115t-8.5 120q0 384 230 384q66 0 113 -42t53 -108z" />
    <glyph glyph-name="D" unicode="D" 
d="M123 0v720h180q60 0 104 -28.5t68 -73.5q44 -81 44 -258q0 -195 -58 -280q-56 -80 -172 -80h-166zM170 680v-640h89q33 0 57 3t48.5 12.5t43 28.5t31.5 48q30 69 30 228q0 169 -33 235q-26 52 -68 68.5t-109 16.5h-89z" />
    <glyph glyph-name="E" unicode="E" 
d="M503 720v-40h-305v-290h219v-40h-219v-310h312v-40h-359v720h352z" />
    <glyph glyph-name="F" unicode="F" 
d="M529 720v-40h-322v-284h242v-40h-242v-356h-47v720h369z" />
    <glyph glyph-name="G" unicode="G" 
d="M475 307h-173v40h220v-361h-47v114h-2q-16 -52 -63 -83t-104 -31q-45 0 -80.5 16.5t-65 55t-45 109t-15.5 170.5q0 116 16 196t46.5 122.5t67.5 60.5t86 18q80 0 123.5 -48.5t50.5 -130.5h-50q2 57 -30.5 98t-88.5 41q-40 0 -70.5 -16t-48.5 -46.5t-29 -61.5t-16 -75.5
t-6 -72.5t-1 -68q0 -37 1 -63.5t5.5 -69.5t15 -73.5t27.5 -60.5t45.5 -45.5t65.5 -15.5q67 0 116 52.5t49 170.5v58z" />
    <glyph glyph-name="H" unicode="H" 
d="M157 720v-326h285v326h47v-720h-47v354h-285v-354h-47v720h47z" />
    <glyph glyph-name="I" unicode="I" 
d="M423 720v-40h-100v-640h100v-40h-247v40h100v640h-100v40h247z" />
    <glyph glyph-name="J" unicode="J" 
d="M276 720h183v-492q0 -129 -47 -185.5t-147 -56.5q-90 0 -135 54t-45 177v77h47v-103q0 -86 32 -126t100 -39q74 1 111 44.5t37 120.5v489h-136v40z" />
    <glyph glyph-name="K" unicode="K" 
d="M187 720v-330q75 1 171 140q64 94 102 193l49 -26l-86 -145q-81 -134 -170 -186l308 -366h-65l-285 350h-24v-350h-47v720h47z" />
    <glyph glyph-name="L" unicode="L" 
d="M216 720v-680h316v-40h-363v720h47z" />
    <glyph glyph-name="M" unicode="M" 
d="M300 324l164 396h52v-720h-47v625h-2l-167 -400l-167 400l-2 -2v-623h-47v720h52z" />
    <glyph glyph-name="N" unicode="N" 
d="M438 -7l-264 662l-2 -2v-653h-47v720h68l245 -617l2 2v615h47v-727h-49z" />
    <glyph glyph-name="O" unicode="O" 
d="M302 -14q-37 0 -66.5 9t-58 34t-47.5 66t-30.5 108t-11.5 157q0 58 3.5 103t16.5 98.5t35 89t62.5 59.5t96.5 24q44 0 78.5 -15.5t56 -36.5t37 -57.5t23 -65t11.5 -73t4.5 -66.5t0.5 -60q0 -111 -16 -187t-47 -115.5t-66 -55.5t-82 -16zM138 360q0 -97 12.5 -165
t36 -103.5t51.5 -50.5t64 -15q78 0 119.5 75t41.5 259q0 97 -12 164.5t-34.5 103.5t-50 51t-64.5 15q-82 0 -123 -77.5t-41 -256.5z" />
    <glyph glyph-name="P" unicode="P" 
d="M145 0v720h162q104 0 151 -61.5t47 -153.5q0 -104 -59 -158t-163 -54h-91v-293h-47zM310 680h-118v-347h84q91 0 135 45.5t44 125.5q0 94 -41.5 135t-103.5 41z" />
    <glyph glyph-name="Q" unicode="Q" 
d="M434 43l81 -105h-59l-55 78q-45 -30 -102 -30q-102 0 -158 87t-56 287q0 198 55.5 286t158.5 88q100 0 157 -85t57 -289q0 -65 -3.5 -112t-22.5 -108t-53 -97zM135 360q0 -32 0.5 -52t3.5 -59t9 -65t18 -58.5t29 -52t43.5 -33.5t60.5 -14q165 0 164 327v7
q0 97 -12.5 164.5t-36 103.5t-51 51t-64.5 15q-34 0 -60.5 -13.5t-43.5 -32t-29 -51t-18 -57.5t-9 -64.5t-3.5 -60t-0.5 -55.5z" />
    <glyph glyph-name="R" unicode="R" 
d="M144 0v720h171q89 0 140 -54.5t51 -143.5q0 -70 -37 -124.5t-102 -75.5l194 -322h-59l-179 311h-132v-311h-47zM191 680v-329h117q56 0 102 44.5t46 130.5q0 68 -34.5 111t-106.5 43h-124z" />
    <glyph glyph-name="S" unicode="S" 
d="M487 653l-28 -35q-88 76 -158 76q-56 0 -94.5 -35t-38.5 -91q0 -43 24 -75t89 -72l59 -36q94 -57 130 -96.5t36 -102.5q0 -92 -55.5 -146t-148.5 -54q-121 0 -203 106l36 29q66 -95 167 -95q64 0 109 42t45 106q0 55 -23 86t-118 87l-67 40q-62 37 -96 77t-34 99
q0 79 53 125t133 46q95 0 183 -81z" />
    <glyph glyph-name="T" unicode="T" 
d="M531 720v-40h-208v-680h-47v680h-207v40h462z" />
    <glyph glyph-name="U" unicode="U" 
d="M441 720h47v-535q0 -97 -58.5 -148t-129.5 -51q-76 0 -133 55t-57 133v546h47v-511q0 -96 39.5 -139.5t103.5 -43.5q65 0 103 41.5t38 125.5v527z" />
    <glyph glyph-name="V" unicode="V" 
d="M301 33l140 687h54l-157 -727h-76l-163 727h55l145 -687h2z" />
    <glyph glyph-name="W" unicode="W" 
d="M296 477l125 -400h2l42 643h55l-56 -727h-63l-105 362l-104 -362h-63l-56 727h55l42 -643h2z" />
    <glyph glyph-name="X" unicode="X" 
d="M109 720h56l135 -311l135 311h56l-167 -357l172 -363h-56l-141 319l-139 -319h-56l174 364z" />
    <glyph glyph-name="Y" unicode="Y" 
d="M281 360l152 360h53l-181 -415v-305h-47v305l-181 415h53z" />
    <glyph glyph-name="Z" unicode="Z" 
d="M124 720h355v-40l-310 -640h334v-40h-390v40l313 640h-302v40z" />
    <glyph glyph-name="bracketleft" unicode="[" 
d="M180 742h268v-40h-221v-750h221v-40h-268v830z" />
    <glyph glyph-name="backslash" unicode="\" 
d="M425 -27l-296 774h46l296 -774h-46z" />
    <glyph glyph-name="bracketright" unicode="]" 
d="M422 742v-830h-268v40h221v750h-221v40h268z" />
    <glyph glyph-name="asciicircum" unicode="^" 
d="M162 357h-51l164 323h52l162 -323h-50l-137 275z" />
    <glyph glyph-name="underscore" unicode="_" 
d="M600 -125h-600v50h600v-50z" />
    <glyph glyph-name="grave" unicode="`" 
d="M217 734l159 -130l-22 -30l-174 118z" />
    <glyph glyph-name="a" unicode="a" 
d="M466 -5l-43 -6q-15 45 -20 90q-31 -45 -64 -67.5t-81 -22.5q-69 0 -108 48.5t-39 119.5q0 79 42.5 133.5t116.5 54.5q57 0 129 -35q2 103 -21 146.5t-87 43.5q-50 0 -127 -35l-11 43q82 32 141 32q73 0 113.5 -49t38.5 -137l-6 -216q-1 -58 26 -143zM396 136v137
q-62 32 -115 32q-62 0 -92.5 -44t-30.5 -108q0 -49 26.5 -86.5t73.5 -37.5q45 0 77 28.5t61 78.5z" />
    <glyph glyph-name="b" unicode="b" 
d="M126 742h47v-247q56 45 130 45q31 0 64 -13.5t67 -42.5t55.5 -85t21.5 -131q0 -73 -19.5 -129.5t-50.5 -87.5t-65.5 -46.5t-69.5 -15.5q-97 0 -141 87l-19 -87l-44 6q24 78 24 191v556zM173 448v-313q48 -106 132 -106q25 0 50.5 11.5t51 36.5t41.5 74t16 114
q0 68 -18 117.5t-46.5 73.5t-55.5 34t-53 10q-59 0 -118 -52z" />
    <glyph glyph-name="c" unicode="c" 
d="M474 112l32 -34q-82 -89 -175 -89q-38 0 -74 13t-70.5 42t-55.5 84.5t-21 130.5q0 77 19.5 134t52.5 87.5t69 45t76 14.5q111 0 182 -107l-42 -28q-48 95 -140 95q-22 0 -43 -5.5t-45 -21.5t-41.5 -41t-29 -67.5t-11.5 -97.5q0 -124 52 -181t121 -57q75 0 144 83z" />
    <glyph glyph-name="d" unicode="d" 
d="M472 742v-556q0 -113 24 -191l-44 -6l-19 87q-44 -87 -141 -87q-36 0 -70 15t-65.5 46.5t-50.5 87.5t-19 130q0 75 21.5 131t55.5 85t67 42.5t64 13.5q74 0 130 -45v247h47zM425 135v313q-59 52 -118 52q-26 0 -53 -10t-55.5 -34t-46.5 -73.5t-18 -117.5q0 -65 16 -113.5
t41.5 -73.5t51 -37t50.5 -12q91 0 132 106z" />
    <glyph glyph-name="e" unicode="e" 
d="M478 81l20 -44q-108 -48 -189 -48q-73 0 -123 41.5t-69.5 100.5t-19.5 131t20 132t70.5 103t124.5 43q36 0 68.5 -14t61.5 -44.5t46.5 -88.5t17.5 -136h-362q11 -228 167 -228q80 0 167 52zM144 297h315q4 75 -38 139t-115 64t-118.5 -64t-43.5 -139z" />
    <glyph glyph-name="f" unicode="f" 
d="M526 701v-50q-12 5 -33.5 15.5t-32.5 15t-27 8.5t-32 4q-52 0 -81.5 -28t-29.5 -80v-93h175v-40h-175v-453h-47v453h-136v40h136v60q0 94 44.5 137.5t108.5 43.5q52 0 130 -33z" />
    <glyph glyph-name="g" unicode="g" 
d="M134 -98l33 29q50 -60 130 -60q53 0 94 42.5t41 133.5v65q-27 -29 -68.5 -47t-80.5 -18q-60 0 -103 37t-61.5 89t-18.5 110q0 105 47.5 181t146.5 76q41 0 72.5 -15t71.5 -46l14 61h48q-23 -87 -23 -279v-220q0 -56 -18 -98.5t-46.5 -65.5t-60 -34.5t-64.5 -11.5
q-40 0 -82.5 20.5t-71.5 50.5zM430 168v255q-24 34 -60.5 55.5t-77.5 21.5q-51 0 -85.5 -34.5t-47 -79t-12.5 -94.5q0 -59 15.5 -102t39 -64t45 -30t40.5 -9q41 0 81.5 23t61.5 58z" />
    <glyph glyph-name="h" unicode="h" 
d="M130 0v742h47v-328h2q26 54 72.5 90t103.5 36q46 0 86 -38.5t40 -116.5v-385h-47v332q0 168 -87 168q-67 0 -118.5 -71t-51.5 -163v-266h-47z" />
    <glyph glyph-name="i" unicode="i" 
d="M289 0v489h-154v40h201v-529h-47zM311 734q22 0 37.5 -15t15.5 -37t-15.5 -37t-37.5 -15t-37 15t-15 37t15 37t37 15z" />
    <glyph glyph-name="j" unicode="j" 
d="M86 28h47q0 -74 23.5 -115.5t84.5 -41.5q51 0 82 33t31 82v503h-159v40h206v-528q0 -72 -45.5 -121t-113.5 -49q-81 0 -118.5 56t-37.5 141zM371 734q22 0 37.5 -15t15.5 -37t-15.5 -37t-37.5 -15t-37 15t-15 37t15 37t37 15z" />
    <glyph glyph-name="k" unicode="k" 
d="M427 529h61l-54 -65.5l-45 -54l-34 -40t-38 -42l-40 -39.5l256 -288h-63l-221 261l-50 -49v-212h-47v742h47v-474q144 137 228 261z" />
    <glyph glyph-name="l" unicode="l" 
d="M282 0v702h-156v40h203v-742h-47z" />
    <glyph glyph-name="m" unicode="m" 
d="M77 0v369q0 93 -19 171h48l13 -69q49 69 124 69q57 0 82 -64q51 64 109 64q50 0 77 -30t27 -81v-429h-47v427q0 74 -63 74q-58 0 -97 -68v-433h-47v406q0 26 -2.5 43.5t-15.5 34t-38 16.5q-32 0 -61 -22.5t-43 -54.5v-423h-47z" />
    <glyph glyph-name="n" unicode="n" 
d="M168 218v-218h-47v265q0 165 -21 270h44l19 -152h2q15 61 71 109t117 48q66 0 94.5 -46.5t28.5 -116.5v-377h-47v355q0 25 -0.5 39t-5 37.5t-12.5 36t-24 22.5t-40 10q-30 0 -60 -15.5t-57.5 -47.5t-44.5 -89t-17 -130z" />
    <glyph glyph-name="o" unicode="o" 
d="M300 -11q-36 0 -69.5 13.5t-64.5 43t-49.5 86t-18.5 133.5q0 142 59.5 208.5t142.5 66.5q36 0 69.5 -13.5t64.5 -42.5t50 -85.5t19 -133.5t-18.5 -133.5t-50 -86t-65 -43t-69.5 -13.5zM300 29q46 0 78.5 21.5t48.5 58.5t22.5 74.5t6.5 81.5t-6.5 81t-22.5 74t-48.5 58.5
t-78.5 21.5t-78.5 -21.5t-48 -58.5t-22 -74t-6.5 -81t6.5 -81.5t22 -74.5t48 -58.5t78.5 -21.5z" />
    <glyph glyph-name="p" unicode="p" 
d="M126 -212v556q0 112 -24 190l44 6l18 -87h2q43 87 140 87q35 0 69.5 -15t65.5 -46t50.5 -87.5t19.5 -130.5q0 -75 -22 -131.5t-56 -85t-67 -42t-63 -13.5q-74 0 -130 45v-246h-47zM173 394v-313q59 -52 118 -52q26 0 53 10.5t55.5 34t46.5 73t18 117.5q0 65 -16 114
t-41.5 74t-51 36.5t-50.5 11.5q-84 0 -132 -106z" />
    <glyph glyph-name="q" unicode="q" 
d="M473 -212h-47v246q-57 -45 -131 -45q-30 0 -63 13.5t-67 42t-56 85t-22 131.5q0 74 19 130.5t50.5 87.5t65.5 46t70 15q97 0 140 -87h2l18 87l44 -6q-23 -75 -23 -190v-556zM426 81v313q-24 50 -54.5 78t-78.5 28q-25 0 -50.5 -12t-51 -37t-41.5 -73.5t-16 -113.5
q0 -68 18 -117.5t46.5 -73t55.5 -34t53 -10.5q58 0 119 52z" />
    <glyph glyph-name="r" unicode="r" 
d="M216 215v-215h-47v366l-19 169h45l18 -150q74 155 181 155q60 0 85.5 -47.5t25.5 -112.5h-47q-1 25 -2.5 40.5t-7.5 36.5t-20.5 32t-37.5 11q-22 0 -50 -17t-56.5 -49.5t-48 -90t-19.5 -128.5z" />
    <glyph glyph-name="s" unicode="s" 
d="M449 484l-20 -39q-77 55 -142 55q-41 0 -73 -27.5t-32 -68.5q0 -29 21.5 -52.5t42.5 -34t53 -22.5l49.5 -20t43 -22t39.5 -30t23.5 -39.5t10.5 -54.5q0 -63 -47.5 -101.5t-111.5 -38.5q-48 0 -104.5 25t-94.5 60l26 38q35 -35 83 -59t92 -24q47 0 78.5 25.5t31.5 71.5
q0 23 -7.5 41.5t-17 30t-29.5 23t-32.5 16.5l-37.5 15q-37 14 -57.5 24t-48 28.5t-40.5 44.5t-13 59q0 55 47 93.5t108 38.5q82 0 159 -56z" />
    <glyph glyph-name="t" unicode="t" 
d="M451 529v-40h-194v-361q0 -99 84 -99q80 0 123 94l45 -11q-27 -55 -70.5 -89t-99.5 -34q-129 0 -129 167v333h-119v40h119v170h47v-170h194z" />
    <glyph glyph-name="u" unicode="u" 
d="M433 315v214h47v-261q0 -165 21 -268h-44l-20 150h-2q-16 -61 -71.5 -111t-115.5 -50q-66 0 -94.5 48.5t-28.5 118.5v373h47v-351q0 -149 82 -149q68 0 123.5 74t55.5 212z" />
    <glyph glyph-name="v" unicode="v" 
d="M443 529h50l-167 -536h-55l-167 536h50l144 -465z" />
    <glyph glyph-name="w" unicode="w" 
d="M144 -7l-94 536h52l73 -457h2l93 321h51l93 -321h2l73 457h51l-94 -536h-51l-100 342l-100 -342h-51z" />
    <glyph glyph-name="x" unicode="x" 
d="M485 529l-160 -243l206 -286h-63l-169 252l-167 -252h-63l205 284l-165 245h55l136 -208l133 208h52z" />
    <glyph glyph-name="y" unicode="y" 
d="M458 529h54l-198 -503q-13 -34 -19.5 -49.5t-24 -49t-32.5 -50t-39 -31.5t-51 -15q-43 0 -75.5 29t-46.5 72l40 21q30 -82 82 -82q18 0 33 8.5t27.5 27t18.5 30t16 33.5l40 91l-172 468h52l143 -406z" />
    <glyph glyph-name="z" unicode="z" 
d="M147 529h339v-40l-325 -449h337v-40h-396v40l328 449h-283v40z" />
    <glyph glyph-name="braceleft" unicode="{" 
d="M314 197v-156q0 -58 21.5 -89.5t77.5 -37.5l-2 -2q-84 1 -114 32t-30 113v151q0 55 -14.5 79.5t-65.5 37.5v2q51 13 65.5 37.5t14.5 78.5v161q0 77 32 106.5t112 31.5l2 -2q-57 -9 -78 -38.5t-21 -89.5v-161q0 -57 -16 -84.5t-68 -39.5v-2q53 -12 68.5 -41t15.5 -87z" />
    <glyph glyph-name="bar" unicode="|" 
d="M278 -288v1080h44v-1080h-44z" />
    <glyph glyph-name="braceright" unicode="}" 
d="M287 457v156q0 58 -21.5 89.5t-77.5 37.5l2 2q84 -1 114 -32t30 -113v-151q0 -55 14.5 -79.5t65.5 -37.5v-2q-51 -13 -65.5 -37.5t-14.5 -78.5v-161q0 -77 -32 -106.5t-112 -31.5l-2 2q57 9 78 38.5t21 89.5v161q0 57 16 84.5t68 39.5v2q-53 12 -68.5 41t-15.5 87z" />
    <glyph glyph-name="asciitilde" unicode="~" 
d="M538 441l32 -23q-25 -47 -64.5 -80.5t-85.5 -33.5q-30 0 -122.5 37.5t-117.5 37.5q-27 0 -50.5 -16t-34.5 -30.5t-29 -45.5q-3 -5 -5 -8l-31 23q68 121 145 121q44 0 131.5 -37.5t112.5 -37.5q36 0 68.5 28t50.5 65z" />
    <glyph glyph-name="uni00A0" unicode="&#xa0;" 
 />
    <glyph glyph-name="exclamdown" unicode="&#xa1;" 
d="M265 0l13 493h40l17 -493h-70zM230 666q0 28 19.5 48t47.5 20t48 -20t20 -48t-20 -47.5t-48 -19.5t-47.5 19.5t-19.5 47.5z" />
    <glyph glyph-name="cent" unicode="&#xa2;" 
d="M511 541l-45 -30q-40 85 -119 96v-469q61 8 127 82l32 -34q-75 -77 -159 -88v-138h-47v138q-97 15 -143.5 89t-46.5 180q0 249 190 280v95h47v-95q94 -7 164 -106zM300 139v467q-143 -28 -143 -231q0 -204 143 -236z" />
    <glyph glyph-name="sterling" unicode="&#xa3;" 
d="M246 376h188v-40h-176q16 -57 16 -102q0 -48 -20 -92t-56 -97l2 -2q58 27 96 27q46 0 80 -15q49 -20 61 -20q29 0 75 39l26 -31q-44 -48 -96 -48q-31 0 -74 17q-46 18 -76 18q-53 0 -121 -41l-28 38q50 85 67 126.5t17 73.5q0 55 -17 109h-127v40h116q-39 131 -39 189
q0 73 51.5 121t123.5 48q59 0 108 -29t72 -81l-45 -15q-42 85 -130 85q-56 0 -94.5 -36.5t-38.5 -99.5q0 -40 39 -182z" />
    <glyph glyph-name="currency" unicode="&#xa4;" 
d="M120 506l-109 107l33 32l108 -107q64 52 148 52t148 -52l108 107l33 -32l-109 -107q50 -68 50 -146t-50 -146l109 -107l-33 -32l-108 107q-64 -52 -148 -52t-148 52l-108 -107l-33 32l109 107q-50 68 -50 146t50 146zM300 169q81 0 136 55t55 136t-55 136.5t-136 55.5
t-136 -55.5t-55 -136.5t55 -136t136 -55z" />
    <glyph glyph-name="yen" unicode="&#xa5;" 
d="M120 220h138v80h-138v41h122l-165 379h56l149 -360l148 360h56l-166 -379h123v-41h-138v-80h138v-41h-138v-179h-47v179h-138v41z" />
    <glyph glyph-name="brokenbar" unicode="&#xa6;" 
d="M278 675h44v-350h-44v350zM278 175h44v-350h-44v350z" />
    <glyph glyph-name="section" unicode="&#xa7;" 
d="M401 346l-185 146q-26 -9 -41 -31t-15 -50q0 -37 38 -73l186 -146q25 9 40 31t15 50q0 43 -38 73zM315 188l-59 46q-5 4 -33.5 25t-40.5 32t-32 31.5t-28.5 40.5t-8.5 41q0 74 77 112q-37 37 -37 87q0 62 39.5 96.5t102.5 34.5q73 0 117 -40.5t40 -115.5h-47q2 54 -25 85
t-81 31q-42 0 -70.5 -21.5t-28.5 -61.5q0 -11 2.5 -21t4.5 -17t9 -16t10 -13.5t13.5 -13l13.5 -11t16 -12t15 -11.5l60 -46q5 -3 28 -20.5l33 -25.5t29 -25.5t27.5 -31t16.5 -31.5t8 -36q0 -74 -77 -112q38 -38 38 -87q0 -62 -40 -96.5t-102 -34.5q-74 0 -117.5 40.5
t-39.5 115.5h46q-2 -55 25 -85.5t82 -30.5q41 0 70 21.5t29 61.5q0 14 -4 27t-8 21t-16 19.5l-16 15.5t-21 17t-20 15z" />
    <glyph glyph-name="dieresis" unicode="&#xa8;" 
d="M152 652q0 23 16.5 39.5t39.5 16.5t39.5 -16.5t16.5 -39.5t-16.5 -39.5t-39.5 -16.5t-39.5 16.5t-16.5 39.5zM335 652q0 23 16.5 39.5t39.5 16.5t39.5 -16.5t16.5 -39.5t-16.5 -39.5t-39.5 -16.5t-39.5 16.5t-16.5 39.5z" />
    <glyph glyph-name="copyright" unicode="&#xa9;" 
d="M298 -14q-124 0 -211 109.5t-87 265.5q0 155 87 264t211 109t210 -109t86 -264q0 -156 -86 -265.5t-210 -109.5zM298 26q107 0 181.5 99t74.5 236q0 136 -75 234.5t-181 98.5q-107 0 -182.5 -98.5t-75.5 -234.5q0 -137 75.5 -236t182.5 -99zM406 293h40
q-6 -65 -44 -105.5t-91 -40.5q-72 0 -118.5 62.5t-46.5 154.5q0 94 44.5 154.5t118.5 60.5q54 0 91.5 -38t45.5 -103h-40q-6 43 -33.5 72t-62.5 29q-56 0 -90 -50.5t-34 -123.5q0 -70 35 -124t90 -54q36 0 63.5 30.5t31.5 75.5z" />
    <glyph glyph-name="ordfeminine" unicode="&#xaa;" 
d="M395 610v-120q0 -16 1.5 -28t6 -28.5t6.5 -28.5l-36 -5l-11 45q-41 -44 -88 -44q-43 0 -69.5 29t-26.5 73q0 52 28 84.5t80 32.5q32 0 71 -12q0 92 -59 92q-35 0 -88 -27l-8 45q73 16 97 16q43 0 69.5 -31t26.5 -93zM355 495v75q-44 16 -67 16q-35 0 -52.5 -24t-17.5 -60
q0 -27 15 -47t41 -20q41 0 81 60zM413 349v-34h-237v34h237z" />
    <glyph glyph-name="guillemotleft" unicode="&#xab;" 
d="M539 605l29 -30l-229 -219l229 -219l-29 -32l-259 251zM292 605l29 -30l-229 -219l229 -219l-29 -32l-259 251z" />
    <glyph glyph-name="logicalnot" unicode="&#xac;" 
d="M522 173v232h-488v44h532v-276h-44z" />
    <glyph glyph-name="uni00AD" unicode="&#xad;" 
d="M418 339h-236v40h236v-40z" />
    <glyph glyph-name="registered" unicode="&#xae;" 
d="M301 -14q-125 0 -213 109.5t-88 265.5q0 155 88 264t213 109q124 0 211.5 -109t87.5 -264q0 -156 -87.5 -265.5t-211.5 -109.5zM301 26q108 0 183.5 98.5t75.5 236.5q0 137 -75.5 235t-183.5 98q-109 0 -185 -98t-76 -235q0 -138 76 -236.5t185 -98.5zM349 344l101 -193
h-49l-95 193h-76v-193h-40v418h145q118 0 118 -111q0 -110 -104 -114zM230 529v-145h101q82 0 82 76q0 23 -7 38t-21.5 21t-27 8t-31.5 2h-96z" />
    <glyph glyph-name="macron" unicode="&#xaf;" 
d="M444 631h-288v40h288v-40z" />
    <glyph glyph-name="degree" unicode="&#xb0;" 
d="M107 549q0 80 56.5 136.5t136.5 56.5t136.5 -56.5t56.5 -136.5t-56.5 -136.5t-136.5 -56.5t-136.5 56.5t-56.5 136.5zM149 549q0 -62 44.5 -106.5t106.5 -44.5t106.5 44.5t44.5 106.5t-44.5 106.5t-106.5 44.5t-106.5 -44.5t-44.5 -106.5z" />
    <glyph glyph-name="plusminus" unicode="&#xb1;" 
d="M566 429v-44h-244v-244h-44v244h-244v44h244v244h44v-244h244zM566 91v-44h-532v44h532z" />
    <glyph glyph-name="twosuperior" unicode="&#xb2;" 
d="M230 370h181v-32h-221q-1 61 15 98t68 81q3 3 15.5 13t19 16l18 16.5t17.5 18.5l13.5 18.5t10.5 21t3 20.5q0 28 -16 44.5t-44 16.5q-33 0 -51 -23t-20 -58h-40q3 51 32 82t80 31q46 0 72.5 -25t26.5 -70q0 -14 -5.5 -29t-11 -25t-20 -25.5t-20.5 -21l-24.5 -22
t-21.5 -18.5q-27 -24 -39.5 -37.5t-24.5 -37.5t-13 -53z" />
    <glyph glyph-name="threesuperior" unicode="&#xb3;" 
d="M272 531v32q35 -2 61 18.5t26 55.5q0 28 -20.5 46.5t-49.5 18.5q-24 0 -44 -16.5t-31 -39.5l-34 19q38 69 114 69q43 0 74 -29t31 -72q0 -53 -54 -84q71 -31 71 -102q0 -52 -34 -84.5t-86 -32.5q-42 0 -70 18t-52 55l35 21q29 -62 87 -62q35 0 57.5 22t22.5 57
q0 90 -104 90z" />
    <glyph glyph-name="acute" unicode="&#xb4;" 
d="M383 734l37 -42l-174 -118l-22 30z" />
    <glyph glyph-name="mu" unicode="&#xb5;" 
d="M426 226v292h47v-518h-47v93h-2q-17 -43 -49 -73.5t-73 -30.5q-43 0 -76 28t-50 70h-2v-319h-47v750h47v-308q0 -95 38.5 -138t84.5 -43q21 0 41.5 9t41.5 29.5t33.5 61.5t12.5 97z" />
    <glyph glyph-name="paragraph" unicode="&#xb6;" 
d="M278 -113v446q-91 -7 -156 47t-65 145q0 23 3 44t17.5 50.5t38.5 50t71 35.5t110 15h246v-40h-46v-793h-47v793h-125v-793h-47z" />
    <glyph glyph-name="periodcentered" unicode="&#xb7;" 
d="M250 360q0 21 14.5 35.5t35.5 14.5t35.5 -14.5t14.5 -35.5t-14.5 -35.5t-35.5 -14.5t-35.5 14.5t-14.5 35.5z" />
    <glyph glyph-name="cedilla" unicode="&#xb8;" 
d="M297 13h36l-23 -68q39 -1 65.5 -17t26.5 -52q0 -33 -27 -53t-61 -20q-36 0 -94 25l12 33q46 -18 71 -18q17 0 34.5 9.5t17.5 25.5q0 33 -58 33q-10 0 -22 -1t-14 -1z" />
    <glyph glyph-name="onesuperior" unicode="&#xb9;" 
d="M322 734v-375h72v-32h-186v32h74v327l-78 -24v35z" />
    <glyph glyph-name="ordmasculine" unicode="&#xba;" 
d="M419 349v-34h-238v34h238zM300 401q-64 0 -97.5 45t-33.5 121q0 70 32 118.5t99 48.5q64 0 97.5 -46.5t33.5 -120.5q0 -73 -33 -119.5t-98 -46.5zM300 435q50 0 70.5 38.5t20.5 93.5q0 133 -91 133t-91 -133q0 -132 91 -132z" />
    <glyph glyph-name="guillemotright" unicode="&#xbb;" 
d="M61 605l259 -249l-259 -251l-29 32l229 219l-229 219zM309 605l259 -249l-259 -251l-29 32l229 219l-229 219z" />
    <glyph glyph-name="onequarter" unicode="&#xbc;" 
d="M477 133v212h-2l-111 -212h113zM469 734h40l-329 -734h-40zM517 396v-263h57v-32h-57v-101h-40v101h-158v25l146 270h52zM171 734v-375h72v-32h-186v32h74v327l-78 -24v35z" />
    <glyph glyph-name="onehalf" unicode="&#xbd;" 
d="M171 734v-375h72v-32h-186v32h74v327l-78 -24v35zM454 734h41l-331 -734h-40zM380 32h181v-32h-221q-1 61 15 98t68 81q3 3 15.5 13t19 16l18 16.5t17.5 18.5l13.5 18.5t10.5 21t3 20.5q0 28 -16 44.5t-44 16.5q-33 0 -51 -23t-20 -58h-40q3 51 32 82t80 31
q46 0 72.5 -25t26.5 -70q0 -14 -5.5 -29t-11 -25t-20 -25.5t-20.5 -21l-24.5 -22t-21.5 -18.5q-27 -24 -39.5 -37.5t-24.5 -37.5t-13 -53z" />
    <glyph glyph-name="threequarters" unicode="&#xbe;" 
d="M469 734h40l-329 -734h-40zM477 133v212h-2l-111 -212h113zM517 396v-263h57v-32h-57v-101h-40v101h-158v25l146 270h52zM122 531v32q35 -2 61 18.5t26 55.5q0 28 -20.5 46.5t-49.5 18.5q-24 0 -44 -16.5t-31 -39.5l-34 19q38 69 114 69q43 0 74 -29t31 -72
q0 -53 -54 -84q71 -31 71 -102q0 -52 -34 -84.5t-86 -32.5q-42 0 -70 18t-52 55l35 21q29 -62 87 -62q35 0 57.5 22t22.5 57q0 90 -104 90z" />
    <glyph glyph-name="questiondown" unicode="&#xbf;" 
d="M283 496h47v-98q0 -36 -8 -53q-11 -26 -76 -76q-32 -26 -46.5 -51t-14.5 -63q0 -58 33 -93.5t90 -35.5q52 0 83.5 31t33.5 82h50q-6 -72 -51 -112.5t-117 -40.5q-79 0 -124 46.5t-45 125.5q0 54 19.5 84.5t67.5 68.5q43 34 50.5 51.5t7.5 72.5v61zM230 666q0 28 19.5 48
t47.5 20t48 -20t20 -48t-20 -47.5t-48 -19.5t-47.5 19.5t-19.5 47.5z" />
    <glyph glyph-name="Agrave" unicode="&#xc0;" 
d="M301 749l241 -749h-53l-65 219h-245l-66 -219h-52zM301 621l-112 -362h225zM217 925l159 -130l-22 -30l-174 118z" />
    <glyph glyph-name="Aacute" unicode="&#xc1;" 
d="M301 749l241 -749h-53l-65 219h-245l-66 -219h-52zM301 621l-112 -362h225zM403 925l37 -42l-174 -118l-22 30z" />
    <glyph glyph-name="Acircumflex" unicode="&#xc2;" 
d="M301 749l241 -749h-53l-65 219h-245l-66 -219h-52zM301 621l-112 -362h225zM300 866l-140 -105l-23 25l163 142l163 -142l-23 -25z" />
    <glyph glyph-name="Atilde" unicode="&#xc3;" 
d="M301 749l241 -749h-53l-65 219h-245l-66 -219h-52zM301 621l-112 -362h225zM447 883l37 -15q-14 -33 -40.5 -55.5t-60.5 -22.5q-33 0 -84 32q-48 32 -76 32q-42 0 -71 -67l-36 13q42 94 111 94q9 0 17.5 -1.5t18.5 -6t14 -6.5t16.5 -9.5t14.5 -8.5q55 -33 74 -33
q44 0 65 54z" />
    <glyph glyph-name="Adieresis" unicode="&#xc4;" 
d="M301 749l241 -749h-53l-65 219h-245l-66 -219h-52zM301 621l-112 -362h225zM152 843q0 23 16.5 39.5t39.5 16.5t39.5 -16.5t16.5 -39.5t-16.5 -39.5t-39.5 -16.5t-39.5 16.5t-16.5 39.5zM335 843q0 23 16.5 39.5t39.5 16.5t39.5 -16.5t16.5 -39.5t-16.5 -39.5
t-39.5 -16.5t-39.5 16.5t-16.5 39.5z" />
    <glyph glyph-name="Aring" unicode="&#xc5;" 
d="M301 749l241 -749h-53l-65 219h-245l-66 -219h-52zM301 621l-112 -362h225zM218 834q0 34 24 58t58 24t58 -24t24 -58t-24 -58t-58 -24t-58 24t-24 58zM254 834q0 -19 13.5 -32.5t32.5 -13.5t32.5 13.5t13.5 32.5t-13.5 32.5t-32.5 13.5t-32.5 -13.5t-13.5 -32.5z" />
    <glyph glyph-name="AE" unicode="&#xc6;" 
d="M229 720h311v-40h-208v-287h145v-40h-145v-313h216v-40h-263v222h-145l-57 -222h-51zM285 262v418h-26l-108 -418h134z" />
    <glyph glyph-name="Ccedilla" unicode="&#xc7;" 
d="M492 584h-47q-2 47 -36.5 78.5t-82.5 31.5q-180 0 -180 -339q0 -329 174 -329q56 0 94.5 37t40.5 93h47q-8 -78 -54.5 -123t-123.5 -46l-14 -42q39 -1 65.5 -17t26.5 -52q0 -33 -27 -53t-61 -20q-36 0 -94 25l12 33q46 -18 71 -18q17 0 34.5 9.5t17.5 25.5q0 33 -58 33
q-10 0 -22 -1t-14 -1l27 79q-47 6 -83 32.5t-56 63t-32.5 85.5t-16.5 91.5t-4 89.5q0 384 230 384q66 0 113 -42t53 -108z" />
    <glyph glyph-name="Egrave" unicode="&#xc8;" 
d="M503 720v-40h-305v-290h219v-40h-219v-310h312v-40h-359v720h352zM227 925l159 -130l-22 -30l-174 118z" />
    <glyph glyph-name="Eacute" unicode="&#xc9;" 
d="M503 720v-40h-305v-290h219v-40h-219v-310h312v-40h-359v720h352zM403 925l37 -42l-174 -118l-22 30z" />
    <glyph glyph-name="Ecircumflex" unicode="&#xca;" 
d="M503 720v-40h-305v-290h219v-40h-219v-310h312v-40h-359v720h352zM320 866l-140 -105l-23 25l163 142l163 -142l-23 -25z" />
    <glyph glyph-name="Edieresis" unicode="&#xcb;" 
d="M503 720v-40h-305v-290h219v-40h-219v-310h312v-40h-359v720h352zM167 843q0 23 16.5 39.5t39.5 16.5t39.5 -16.5t16.5 -39.5t-16.5 -39.5t-39.5 -16.5t-39.5 16.5t-16.5 39.5zM350 843q0 23 16.5 39.5t39.5 16.5t39.5 -16.5t16.5 -39.5t-16.5 -39.5t-39.5 -16.5
t-39.5 16.5t-16.5 39.5z" />
    <glyph glyph-name="Igrave" unicode="&#xcc;" 
d="M423 720v-40h-100v-640h100v-40h-247v40h100v640h-100v40h247zM217 925l159 -130l-22 -30l-174 118z" />
    <glyph glyph-name="Iacute" unicode="&#xcd;" 
d="M423 720v-40h-100v-640h100v-40h-247v40h100v640h-100v40h247zM383 925l37 -42l-174 -118l-22 30z" />
    <glyph glyph-name="Icircumflex" unicode="&#xce;" 
d="M423 720v-40h-100v-640h100v-40h-247v40h100v640h-100v40h247zM300 866l-140 -105l-23 25l163 142l163 -142l-23 -25z" />
    <glyph glyph-name="Idieresis" unicode="&#xcf;" 
d="M423 720v-40h-100v-640h100v-40h-247v40h100v640h-100v40h247zM152 843q0 23 16.5 39.5t39.5 16.5t39.5 -16.5t16.5 -39.5t-16.5 -39.5t-39.5 -16.5t-39.5 16.5t-16.5 39.5zM335 843q0 23 16.5 39.5t39.5 16.5t39.5 -16.5t16.5 -39.5t-16.5 -39.5t-39.5 -16.5t-39.5 16.5
t-16.5 39.5z" />
    <glyph glyph-name="Eth" unicode="&#xd0;" 
d="M123 394v326h180q60 0 104 -28.5t68 -73.5q44 -81 44 -258q0 -195 -58 -280q-56 -80 -172 -80h-166v354h-99v40h99zM170 354v-314h89q33 0 57 3t48.5 12.5t43 28.5t31.5 48q30 69 30 228q0 169 -33 235q-26 52 -68 68.5t-109 16.5h-89v-286h144v-40h-144z" />
    <glyph glyph-name="Ntilde" unicode="&#xd1;" 
d="M438 -7l-264 662l-2 -2v-653h-47v720h68l245 -617l2 2v615h47v-727h-49zM447 883l37 -15q-14 -33 -40.5 -55.5t-60.5 -22.5q-33 0 -84 32q-48 32 -76 32q-42 0 -71 -67l-36 13q42 94 111 94q9 0 17.5 -1.5t18.5 -6t14 -6.5t16.5 -9.5t14.5 -8.5q55 -33 74 -33q44 0 65 54
z" />
    <glyph glyph-name="Ograve" unicode="&#xd2;" 
d="M302 -14q-37 0 -66.5 9t-58 34t-47.5 66t-30.5 108t-11.5 157q0 58 3.5 103t16.5 98.5t35 89t62.5 59.5t96.5 24q44 0 78.5 -15.5t56 -36.5t37 -57.5t23 -65t11.5 -73t4.5 -66.5t0.5 -60q0 -111 -16 -187t-47 -115.5t-66 -55.5t-82 -16zM138 360q0 -97 12.5 -165
t36 -103.5t51.5 -50.5t64 -15q78 0 119.5 75t41.5 259q0 97 -12 164.5t-34.5 103.5t-50 51t-64.5 15q-82 0 -123 -77.5t-41 -256.5zM217 925l159 -130l-22 -30l-174 118z" />
    <glyph glyph-name="Oacute" unicode="&#xd3;" 
d="M302 -14q-37 0 -66.5 9t-58 34t-47.5 66t-30.5 108t-11.5 157q0 58 3.5 103t16.5 98.5t35 89t62.5 59.5t96.5 24q44 0 78.5 -15.5t56 -36.5t37 -57.5t23 -65t11.5 -73t4.5 -66.5t0.5 -60q0 -111 -16 -187t-47 -115.5t-66 -55.5t-82 -16zM138 360q0 -97 12.5 -165
t36 -103.5t51.5 -50.5t64 -15q78 0 119.5 75t41.5 259q0 97 -12 164.5t-34.5 103.5t-50 51t-64.5 15q-82 0 -123 -77.5t-41 -256.5zM383 925l37 -42l-174 -118l-22 30z" />
    <glyph glyph-name="Ocircumflex" unicode="&#xd4;" 
d="M302 -14q-37 0 -66.5 9t-58 34t-47.5 66t-30.5 108t-11.5 157q0 58 3.5 103t16.5 98.5t35 89t62.5 59.5t96.5 24q44 0 78.5 -15.5t56 -36.5t37 -57.5t23 -65t11.5 -73t4.5 -66.5t0.5 -60q0 -111 -16 -187t-47 -115.5t-66 -55.5t-82 -16zM138 360q0 -97 12.5 -165
t36 -103.5t51.5 -50.5t64 -15q78 0 119.5 75t41.5 259q0 97 -12 164.5t-34.5 103.5t-50 51t-64.5 15q-82 0 -123 -77.5t-41 -256.5zM300 866l-140 -105l-23 25l163 142l163 -142l-23 -25z" />
    <glyph glyph-name="Otilde" unicode="&#xd5;" 
d="M302 -14q-37 0 -66.5 9t-58 34t-47.5 66t-30.5 108t-11.5 157q0 58 3.5 103t16.5 98.5t35 89t62.5 59.5t96.5 24q44 0 78.5 -15.5t56 -36.5t37 -57.5t23 -65t11.5 -73t4.5 -66.5t0.5 -60q0 -111 -16 -187t-47 -115.5t-66 -55.5t-82 -16zM138 360q0 -97 12.5 -165
t36 -103.5t51.5 -50.5t64 -15q78 0 119.5 75t41.5 259q0 97 -12 164.5t-34.5 103.5t-50 51t-64.5 15q-82 0 -123 -77.5t-41 -256.5zM447 883l37 -15q-14 -33 -40.5 -55.5t-60.5 -22.5q-33 0 -84 32q-48 32 -76 32q-42 0 -71 -67l-36 13q42 94 111 94q9 0 17.5 -1.5t18.5 -6
t14 -6.5t16.5 -9.5t14.5 -8.5q55 -33 74 -33q44 0 65 54z" />
    <glyph glyph-name="Odieresis" unicode="&#xd6;" 
d="M302 -14q-37 0 -66.5 9t-58 34t-47.5 66t-30.5 108t-11.5 157q0 58 3.5 103t16.5 98.5t35 89t62.5 59.5t96.5 24q44 0 78.5 -15.5t56 -36.5t37 -57.5t23 -65t11.5 -73t4.5 -66.5t0.5 -60q0 -111 -16 -187t-47 -115.5t-66 -55.5t-82 -16zM138 360q0 -97 12.5 -165
t36 -103.5t51.5 -50.5t64 -15q78 0 119.5 75t41.5 259q0 97 -12 164.5t-34.5 103.5t-50 51t-64.5 15q-82 0 -123 -77.5t-41 -256.5zM152 843q0 23 16.5 39.5t39.5 16.5t39.5 -16.5t16.5 -39.5t-16.5 -39.5t-39.5 -16.5t-39.5 16.5t-16.5 39.5zM335 843q0 23 16.5 39.5
t39.5 16.5t39.5 -16.5t16.5 -39.5t-16.5 -39.5t-39.5 -16.5t-39.5 16.5t-16.5 39.5z" />
    <glyph glyph-name="multiply" unicode="&#xd7;" 
d="M566 126l-31 -32l-235 235l-235 -235l-31 32l235 234l-235 235l31 31l235 -235l235 235l31 -31l-235 -235z" />
    <glyph glyph-name="Oslash" unicode="&#xd8;" 
d="M444 566l-263 -470q43 -70 119 -70q48 0 81.5 26.5t51 75.5t24.5 106t7 132q0 129 -20 200zM162 139l264 474q-45 81 -126 81q-34 0 -60.5 -13t-43.5 -30t-29 -49t-17.5 -54t-8.5 -62.5t-3 -57.5v-55v-19q0 -144 24 -215zM452 658l34 62l33 -20l-45 -80q40 -93 40 -254
q0 -35 -1 -62.5t-5.5 -69t-12.5 -73t-24 -66.5t-38 -57t-56 -37t-77 -15q-88 0 -143 66l-42 -75l-33 19l51 91q-45 90 -45 267q0 39 0.5 65t5 69.5t12.5 73.5t23.5 65t37.5 56.5t56 36t77 14.5q96 0 152 -76z" />
    <glyph glyph-name="Ugrave" unicode="&#xd9;" 
d="M441 720h47v-535q0 -97 -58.5 -148t-129.5 -51q-76 0 -133 55t-57 133v546h47v-511q0 -96 39.5 -139.5t103.5 -43.5q65 0 103 41.5t38 125.5v527zM217 925l159 -130l-22 -30l-174 118z" />
    <glyph glyph-name="Uacute" unicode="&#xda;" 
d="M441 720h47v-535q0 -97 -58.5 -148t-129.5 -51q-76 0 -133 55t-57 133v546h47v-511q0 -96 39.5 -139.5t103.5 -43.5q65 0 103 41.5t38 125.5v527zM383 925l37 -42l-174 -118l-22 30z" />
    <glyph glyph-name="Ucircumflex" unicode="&#xdb;" 
d="M441 720h47v-535q0 -97 -58.5 -148t-129.5 -51q-76 0 -133 55t-57 133v546h47v-511q0 -96 39.5 -139.5t103.5 -43.5q65 0 103 41.5t38 125.5v527zM300 866l-140 -105l-23 25l163 142l163 -142l-23 -25z" />
    <glyph glyph-name="Udieresis" unicode="&#xdc;" 
d="M441 720h47v-535q0 -97 -58.5 -148t-129.5 -51q-76 0 -133 55t-57 133v546h47v-511q0 -96 39.5 -139.5t103.5 -43.5q65 0 103 41.5t38 125.5v527zM152 843q0 23 16.5 39.5t39.5 16.5t39.5 -16.5t16.5 -39.5t-16.5 -39.5t-39.5 -16.5t-39.5 16.5t-16.5 39.5zM335 843
q0 23 16.5 39.5t39.5 16.5t39.5 -16.5t16.5 -39.5t-16.5 -39.5t-39.5 -16.5t-39.5 16.5t-16.5 39.5z" />
    <glyph glyph-name="Yacute" unicode="&#xdd;" 
d="M281 360l152 360h53l-181 -415v-305h-47v305l-181 415h53zM383 925l37 -42l-174 -118l-22 30z" />
    <glyph glyph-name="Thorn" unicode="&#xde;" 
d="M145 0v720h47v-147h115q104 0 151 -61.5t47 -153.5q0 -104 -59 -158t-163 -54h-91v-146h-47zM192 533v-347h84q91 0 135 45.5t44 125.5q0 93 -41.5 134.5t-103.5 41.5h-118z" />
    <glyph glyph-name="germandbls" unicode="&#xdf;" 
d="M264 364v40q65 3 107 45.5t42 107.5q0 56 -32.5 96.5t-87.5 40.5q-46 0 -72 -32t-26 -88v-574h-47v581q0 53 41.5 103t108.5 50q73 0 117.5 -53t44.5 -128q0 -105 -102 -165q131 -44 131 -200q0 -97 -44 -148t-110 -51q-42 0 -79 27l21 34q31 -21 62 -21q47 0 75 43
t28 111q0 94 -44.5 134.5t-133.5 46.5z" />
    <glyph glyph-name="agrave" unicode="&#xe0;" 
d="M466 -5l-43 -6q-15 45 -20 90q-31 -45 -64 -67.5t-81 -22.5q-69 0 -108 48.5t-39 119.5q0 79 42.5 133.5t116.5 54.5q57 0 129 -35q2 103 -21 146.5t-87 43.5q-50 0 -127 -35l-11 43q82 32 141 32q73 0 113.5 -49t38.5 -137l-6 -216q-1 -58 26 -143zM396 136v137
q-62 32 -115 32q-62 0 -92.5 -44t-30.5 -108q0 -49 26.5 -86.5t73.5 -37.5q45 0 77 28.5t61 78.5zM217 734l159 -130l-22 -30l-174 118z" />
    <glyph glyph-name="aacute" unicode="&#xe1;" 
d="M466 -5l-43 -6q-15 45 -20 90q-31 -45 -64 -67.5t-81 -22.5q-69 0 -108 48.5t-39 119.5q0 79 42.5 133.5t116.5 54.5q57 0 129 -35q2 103 -21 146.5t-87 43.5q-50 0 -127 -35l-11 43q82 32 141 32q73 0 113.5 -49t38.5 -137l-6 -216q-1 -58 26 -143zM396 136v137
q-62 32 -115 32q-62 0 -92.5 -44t-30.5 -108q0 -49 26.5 -86.5t73.5 -37.5q45 0 77 28.5t61 78.5zM393 734l37 -42l-174 -118l-22 30z" />
    <glyph glyph-name="acircumflex" unicode="&#xe2;" 
d="M466 -5l-43 -6q-15 45 -20 90q-31 -45 -64 -67.5t-81 -22.5q-69 0 -108 48.5t-39 119.5q0 79 42.5 133.5t116.5 54.5q57 0 129 -35q2 103 -21 146.5t-87 43.5q-50 0 -127 -35l-11 43q82 32 141 32q73 0 113.5 -49t38.5 -137l-6 -216q-1 -58 26 -143zM396 136v137
q-62 32 -115 32q-62 0 -92.5 -44t-30.5 -108q0 -49 26.5 -86.5t73.5 -37.5q45 0 77 28.5t61 78.5zM300 675l-140 -105l-23 25l163 142l163 -142l-23 -25z" />
    <glyph glyph-name="atilde" unicode="&#xe3;" 
d="M466 -5l-43 -6q-15 45 -20 90q-31 -45 -64 -67.5t-81 -22.5q-69 0 -108 48.5t-39 119.5q0 79 42.5 133.5t116.5 54.5q57 0 129 -35q2 103 -21 146.5t-87 43.5q-50 0 -127 -35l-11 43q82 32 141 32q73 0 113.5 -49t38.5 -137l-6 -216q-1 -58 26 -143zM396 136v137
q-62 32 -115 32q-62 0 -92.5 -44t-30.5 -108q0 -49 26.5 -86.5t73.5 -37.5q45 0 77 28.5t61 78.5zM447 692l37 -15q-14 -33 -40.5 -55.5t-60.5 -22.5q-33 0 -84 32q-48 32 -76 32q-42 0 -71 -67l-36 13q42 94 111 94q9 0 17.5 -1.5t18.5 -6t14 -6.5t16.5 -9.5t14.5 -8.5
q55 -33 74 -33q44 0 65 54z" />
    <glyph glyph-name="adieresis" unicode="&#xe4;" 
d="M466 -5l-43 -6q-15 45 -20 90q-31 -45 -64 -67.5t-81 -22.5q-69 0 -108 48.5t-39 119.5q0 79 42.5 133.5t116.5 54.5q57 0 129 -35q2 103 -21 146.5t-87 43.5q-50 0 -127 -35l-11 43q82 32 141 32q73 0 113.5 -49t38.5 -137l-6 -216q-1 -58 26 -143zM396 136v137
q-62 32 -115 32q-62 0 -92.5 -44t-30.5 -108q0 -49 26.5 -86.5t73.5 -37.5q45 0 77 28.5t61 78.5zM142 652q0 23 16.5 39.5t39.5 16.5t39.5 -16.5t16.5 -39.5t-16.5 -39.5t-39.5 -16.5t-39.5 16.5t-16.5 39.5zM325 652q0 23 16.5 39.5t39.5 16.5t39.5 -16.5t16.5 -39.5
t-16.5 -39.5t-39.5 -16.5t-39.5 16.5t-16.5 39.5z" />
    <glyph glyph-name="aring" unicode="&#xe5;" 
d="M466 -5l-43 -6q-15 45 -20 90q-31 -45 -64 -67.5t-81 -22.5q-69 0 -108 48.5t-39 119.5q0 79 42.5 133.5t116.5 54.5q57 0 129 -35q2 103 -21 146.5t-87 43.5q-50 0 -127 -35l-11 43q82 32 141 32q73 0 113.5 -49t38.5 -137l-6 -216q-1 -58 26 -143zM396 136v137
q-62 32 -115 32q-62 0 -92.5 -44t-30.5 -108q0 -49 26.5 -86.5t73.5 -37.5q45 0 77 28.5t61 78.5zM213 660q0 34 24 58t58 24t58 -24t24 -58t-24 -58t-58 -24t-58 24t-24 58zM249 660q0 -19 13.5 -32.5t32.5 -13.5t32.5 13.5t13.5 32.5t-13.5 32.5t-32.5 13.5t-32.5 -13.5
t-13.5 -32.5z" />
    <glyph glyph-name="ae" unicode="&#xe6;" 
d="M323 299h179q0 31 -5 62.5t-17 64.5t-36.5 53.5t-58.5 20.5q-33 0 -47.5 -22.5t-14.5 -74.5v-104zM276 151v128q-37 23 -77 23q-54 0 -79.5 -45.5t-25.5 -103.5q0 -50 26.5 -87t75.5 -37q24 0 40 8t24 16.5t11.5 29t4 31.5t0.5 37zM323 259v-128q0 -54 15 -78t52 -24
q53 0 146 56l17 -39q-99 -57 -162 -57q-69 0 -95 46q-45 -46 -110 -46q-67 0 -103 48.5t-36 118.5q0 77 40 131.5t115 54.5q38 0 74 -18v76q0 100 -64 100q-20 0 -42.5 -8.5t-35.5 -16t-41 -26.5l-11 42q84 50 130 50q56 0 84 -42q38 41 97 41q73 0 116 -75q22 -38 33 -94.5
t7 -111.5h-226z" />
    <glyph glyph-name="ccedilla" unicode="&#xe7;" 
d="M474 112l32 -34q-82 -89 -175 -89q-4 0 -6 1l-15 -45q39 -1 65.5 -17t26.5 -52q0 -33 -27 -53t-61 -20q-36 0 -94 25l12 33q46 -18 71 -18q17 0 34.5 9.5t17.5 25.5q0 33 -58 33q-10 0 -22 -1t-14 -1l29 84q-75 13 -127.5 77t-52.5 189q0 77 19.5 134t52.5 87.5t69 45
t76 14.5q111 0 182 -107l-42 -28q-48 95 -140 95q-22 0 -43 -5.5t-45 -21.5t-41.5 -41t-29 -67.5t-11.5 -97.5q0 -124 52 -181t121 -57q75 0 144 83z" />
    <glyph glyph-name="egrave" unicode="&#xe8;" 
d="M478 81l20 -44q-108 -48 -189 -48q-73 0 -123 41.5t-69.5 100.5t-19.5 131t20 132t70.5 103t124.5 43q36 0 68.5 -14t61.5 -44.5t46.5 -88.5t17.5 -136h-362q11 -228 167 -228q80 0 167 52zM144 297h315q4 75 -38 139t-115 64t-118.5 -64t-43.5 -139zM217 734l159 -130
l-22 -30l-174 118z" />
    <glyph glyph-name="eacute" unicode="&#xe9;" 
d="M478 81l20 -44q-108 -48 -189 -48q-73 0 -123 41.5t-69.5 100.5t-19.5 131t20 132t70.5 103t124.5 43q36 0 68.5 -14t61.5 -44.5t46.5 -88.5t17.5 -136h-362q11 -228 167 -228q80 0 167 52zM144 297h315q4 75 -38 139t-115 64t-118.5 -64t-43.5 -139zM403 734l37 -42
l-174 -118l-22 30z" />
    <glyph glyph-name="ecircumflex" unicode="&#xea;" 
d="M478 81l20 -44q-108 -48 -189 -48q-73 0 -123 41.5t-69.5 100.5t-19.5 131t20 132t70.5 103t124.5 43q36 0 68.5 -14t61.5 -44.5t46.5 -88.5t17.5 -136h-362q11 -228 167 -228q80 0 167 52zM144 297h315q4 75 -38 139t-115 64t-118.5 -64t-43.5 -139zM300 675l-140 -105
l-23 25l163 142l163 -142l-23 -25z" />
    <glyph glyph-name="edieresis" unicode="&#xeb;" 
d="M478 81l20 -44q-108 -48 -189 -48q-73 0 -123 41.5t-69.5 100.5t-19.5 131t20 132t70.5 103t124.5 43q36 0 68.5 -14t61.5 -44.5t46.5 -88.5t17.5 -136h-362q11 -228 167 -228q80 0 167 52zM144 297h315q4 75 -38 139t-115 64t-118.5 -64t-43.5 -139zM152 652
q0 23 16.5 39.5t39.5 16.5t39.5 -16.5t16.5 -39.5t-16.5 -39.5t-39.5 -16.5t-39.5 16.5t-16.5 39.5zM335 652q0 23 16.5 39.5t39.5 16.5t39.5 -16.5t16.5 -39.5t-16.5 -39.5t-39.5 -16.5t-39.5 16.5t-16.5 39.5z" />
    <glyph glyph-name="igrave" unicode="&#xec;" 
d="M289 0v489h-154v40h201v-529h-47zM217 734l159 -130l-22 -30l-174 118z" />
    <glyph glyph-name="iacute" unicode="&#xed;" 
d="M289 0v489h-154v40h201v-529h-47zM363 734l37 -42l-174 -118l-22 30z" />
    <glyph glyph-name="icircumflex" unicode="&#xee;" 
d="M289 0v489h-154v40h201v-529h-47zM260 675l-140 -105l-23 25l163 142l163 -142l-23 -25z" />
    <glyph glyph-name="idieresis" unicode="&#xef;" 
d="M289 0v489h-154v40h201v-529h-47zM152 652q0 23 16.5 39.5t39.5 16.5t39.5 -16.5t16.5 -39.5t-16.5 -39.5t-39.5 -16.5t-39.5 16.5t-16.5 39.5zM335 652q0 23 16.5 39.5t39.5 16.5t39.5 -16.5t16.5 -39.5t-16.5 -39.5t-39.5 -16.5t-39.5 16.5t-16.5 39.5z" />
    <glyph glyph-name="eth" unicode="&#xf0;" 
d="M300 29q46 0 78.5 21.5t48.5 58.5t22.5 74.5t6.5 81.5t-6.5 81t-22.5 74t-48.5 58.5t-78.5 21.5t-78.5 -21.5t-48 -58.5t-22 -74t-6.5 -81t6.5 -81.5t22 -74.5t48 -58.5t78.5 -21.5zM310 640l-142 -68l-30 30l138 66q-57 40 -111 54l33 20q63 -12 122 -53l109 53l29 -31
l-103 -50q67 -59 107.5 -152.5t40.5 -208.5q0 -311 -203 -311q-36 0 -69.5 13.5t-64.5 43t-49.5 86t-18.5 133.5q0 142 59.5 208.5t142.5 66.5q73 0 121 -57l2 2q-37 89 -113 155z" />
    <glyph glyph-name="ntilde" unicode="&#xf1;" 
d="M168 218v-218h-47v265q0 165 -21 270h44l19 -152h2q15 61 71 109t117 48q66 0 94.5 -46.5t28.5 -116.5v-377h-47v355q0 25 -0.5 39t-5 37.5t-12.5 36t-24 22.5t-40 10q-30 0 -60 -15.5t-57.5 -47.5t-44.5 -89t-17 -130zM437 692l37 -15q-14 -33 -40.5 -55.5t-60.5 -22.5
q-33 0 -84 32q-48 32 -76 32q-42 0 -71 -67l-36 13q42 94 111 94q9 0 17.5 -1.5t18.5 -6t14 -6.5t16.5 -9.5t14.5 -8.5q55 -33 74 -33q44 0 65 54z" />
    <glyph glyph-name="ograve" unicode="&#xf2;" 
d="M300 -11q-36 0 -69.5 13.5t-64.5 43t-49.5 86t-18.5 133.5q0 142 59.5 208.5t142.5 66.5q36 0 69.5 -13.5t64.5 -42.5t50 -85.5t19 -133.5t-18.5 -133.5t-50 -86t-65 -43t-69.5 -13.5zM300 29q46 0 78.5 21.5t48.5 58.5t22.5 74.5t6.5 81.5t-6.5 81t-22.5 74t-48.5 58.5
t-78.5 21.5t-78.5 -21.5t-48 -58.5t-22 -74t-6.5 -81t6.5 -81.5t22 -74.5t48 -58.5t78.5 -21.5zM217 734l159 -130l-22 -30l-174 118z" />
    <glyph glyph-name="oacute" unicode="&#xf3;" 
d="M300 -11q-36 0 -69.5 13.5t-64.5 43t-49.5 86t-18.5 133.5q0 142 59.5 208.5t142.5 66.5q36 0 69.5 -13.5t64.5 -42.5t50 -85.5t19 -133.5t-18.5 -133.5t-50 -86t-65 -43t-69.5 -13.5zM300 29q46 0 78.5 21.5t48.5 58.5t22.5 74.5t6.5 81.5t-6.5 81t-22.5 74t-48.5 58.5
t-78.5 21.5t-78.5 -21.5t-48 -58.5t-22 -74t-6.5 -81t6.5 -81.5t22 -74.5t48 -58.5t78.5 -21.5zM403 734l37 -42l-174 -118l-22 30z" />
    <glyph glyph-name="ocircumflex" unicode="&#xf4;" 
d="M300 -11q-36 0 -69.5 13.5t-64.5 43t-49.5 86t-18.5 133.5q0 142 59.5 208.5t142.5 66.5q36 0 69.5 -13.5t64.5 -42.5t50 -85.5t19 -133.5t-18.5 -133.5t-50 -86t-65 -43t-69.5 -13.5zM300 29q46 0 78.5 21.5t48.5 58.5t22.5 74.5t6.5 81.5t-6.5 81t-22.5 74t-48.5 58.5
t-78.5 21.5t-78.5 -21.5t-48 -58.5t-22 -74t-6.5 -81t6.5 -81.5t22 -74.5t48 -58.5t78.5 -21.5zM300 675l-140 -105l-23 25l163 142l163 -142l-23 -25z" />
    <glyph glyph-name="otilde" unicode="&#xf5;" 
d="M300 -11q-36 0 -69.5 13.5t-64.5 43t-49.5 86t-18.5 133.5q0 142 59.5 208.5t142.5 66.5q36 0 69.5 -13.5t64.5 -42.5t50 -85.5t19 -133.5t-18.5 -133.5t-50 -86t-65 -43t-69.5 -13.5zM300 29q46 0 78.5 21.5t48.5 58.5t22.5 74.5t6.5 81.5t-6.5 81t-22.5 74t-48.5 58.5
t-78.5 21.5t-78.5 -21.5t-48 -58.5t-22 -74t-6.5 -81t6.5 -81.5t22 -74.5t48 -58.5t78.5 -21.5zM447 692l37 -15q-14 -33 -40.5 -55.5t-60.5 -22.5q-33 0 -84 32q-48 32 -76 32q-42 0 -71 -67l-36 13q42 94 111 94q9 0 17.5 -1.5t18.5 -6t14 -6.5t16.5 -9.5t14.5 -8.5
q55 -33 74 -33q44 0 65 54z" />
    <glyph glyph-name="odieresis" unicode="&#xf6;" 
d="M300 -11q-36 0 -69.5 13.5t-64.5 43t-49.5 86t-18.5 133.5q0 142 59.5 208.5t142.5 66.5q36 0 69.5 -13.5t64.5 -42.5t50 -85.5t19 -133.5t-18.5 -133.5t-50 -86t-65 -43t-69.5 -13.5zM300 29q46 0 78.5 21.5t48.5 58.5t22.5 74.5t6.5 81.5t-6.5 81t-22.5 74t-48.5 58.5
t-78.5 21.5t-78.5 -21.5t-48 -58.5t-22 -74t-6.5 -81t6.5 -81.5t22 -74.5t48 -58.5t78.5 -21.5zM152 652q0 23 16.5 39.5t39.5 16.5t39.5 -16.5t16.5 -39.5t-16.5 -39.5t-39.5 -16.5t-39.5 16.5t-16.5 39.5zM335 652q0 23 16.5 39.5t39.5 16.5t39.5 -16.5t16.5 -39.5
t-16.5 -39.5t-39.5 -16.5t-39.5 16.5t-16.5 39.5z" />
    <glyph glyph-name="divide" unicode="&#xf7;" 
d="M566 382v-44h-532v44h532zM343 205q0 -18 -12.5 -30.5t-30.5 -12.5t-30.5 12.5t-12.5 30.5t12.5 30.5t30.5 12.5t30.5 -12.5t12.5 -30.5zM343 515q0 -18 -12.5 -30.5t-30.5 -12.5t-30.5 12.5t-12.5 30.5t12.5 30.5t30.5 12.5t30.5 -12.5t12.5 -30.5z" />
    <glyph glyph-name="oslash" unicode="&#xf8;" 
d="M416 500l35 60l31 -22l-39 -64q60 -71 60 -209q0 -143 -59.5 -209.5t-142.5 -66.5q-68 0 -122 45l-36 -62l-31 22l41 67q-55 71 -55 204q0 142 59.5 208.5t143.5 66.5q64 0 115 -40zM178 102l217 363q-36 35 -94 35q-46 0 -78.5 -21.5t-48.5 -58.5t-22.5 -74t-6.5 -81
q0 -102 33 -163zM420 435l-219 -366q36 -40 100 -40q46 0 78.5 21.5t48 58.5t22 74.5t6.5 81.5q0 109 -36 170z" />
    <glyph glyph-name="ugrave" unicode="&#xf9;" 
d="M433 315v214h47v-261q0 -165 21 -268h-44l-20 150h-2q-16 -61 -71.5 -111t-115.5 -50q-66 0 -94.5 48.5t-28.5 118.5v373h47v-351q0 -149 82 -149q68 0 123.5 74t55.5 212zM207 734l159 -130l-22 -30l-174 118z" />
    <glyph glyph-name="uacute" unicode="&#xfa;" 
d="M433 315v214h47v-261q0 -165 21 -268h-44l-20 150h-2q-16 -61 -71.5 -111t-115.5 -50q-66 0 -94.5 48.5t-28.5 118.5v373h47v-351q0 -149 82 -149q68 0 123.5 74t55.5 212zM398 734l37 -42l-174 -118l-22 30z" />
    <glyph glyph-name="ucircumflex" unicode="&#xfb;" 
d="M433 315v214h47v-261q0 -165 21 -268h-44l-20 150h-2q-16 -61 -71.5 -111t-115.5 -50q-66 0 -94.5 48.5t-28.5 118.5v373h47v-351q0 -149 82 -149q68 0 123.5 74t55.5 212zM300 675l-140 -105l-23 25l163 142l163 -142l-23 -25z" />
    <glyph glyph-name="udieresis" unicode="&#xfc;" 
d="M433 315v214h47v-261q0 -165 21 -268h-44l-20 150h-2q-16 -61 -71.5 -111t-115.5 -50q-66 0 -94.5 48.5t-28.5 118.5v373h47v-351q0 -149 82 -149q68 0 123.5 74t55.5 212zM152 652q0 23 16.5 39.5t39.5 16.5t39.5 -16.5t16.5 -39.5t-16.5 -39.5t-39.5 -16.5t-39.5 16.5
t-16.5 39.5zM335 652q0 23 16.5 39.5t39.5 16.5t39.5 -16.5t16.5 -39.5t-16.5 -39.5t-39.5 -16.5t-39.5 16.5t-16.5 39.5z" />
    <glyph glyph-name="yacute" unicode="&#xfd;" 
d="M458 529h54l-198 -503q-13 -34 -19.5 -49.5t-24 -49t-32.5 -50t-39 -31.5t-51 -15q-43 0 -75.5 29t-46.5 72l40 21q30 -82 82 -82q18 0 33 8.5t27.5 27t18.5 30t16 33.5l40 91l-172 468h52l143 -406zM398 734l37 -42l-174 -118l-22 30z" />
    <glyph glyph-name="thorn" unicode="&#xfe;" 
d="M126 -212v954h47v-277h2q30 40 58.5 57.5t72.5 17.5q35 0 69.5 -15t65.5 -46t50.5 -87.5t19.5 -130.5q0 -75 -22 -131.5t-56 -85t-67 -42t-63 -13.5q-74 0 -130 45v-246h-47zM173 394v-313q59 -52 118 -52q26 0 53 10.5t55.5 34t46.5 73t18 117.5q0 65 -16 114t-41.5 74
t-51 36.5t-50.5 11.5q-84 0 -132 -106z" />
    <glyph glyph-name="ydieresis" unicode="&#xff;" 
d="M458 529h54l-198 -503q-13 -34 -19.5 -49.5t-24 -49t-32.5 -50t-39 -31.5t-51 -15q-43 0 -75.5 29t-46.5 72l40 21q30 -82 82 -82q18 0 33 8.5t27.5 27t18.5 30t16 33.5l40 91l-172 468h52l143 -406zM162 652q0 23 16.5 39.5t39.5 16.5t39.5 -16.5t16.5 -39.5
t-16.5 -39.5t-39.5 -16.5t-39.5 16.5t-16.5 39.5zM345 652q0 23 16.5 39.5t39.5 16.5t39.5 -16.5t16.5 -39.5t-16.5 -39.5t-39.5 -16.5t-39.5 16.5t-16.5 39.5z" />
    <glyph glyph-name="dcroat" unicode="&#x111;" 
d="M425 135v313q-59 52 -118 52q-26 0 -53 -10t-55.5 -34t-46.5 -73.5t-18 -117.5q0 -65 16 -113.5t41.5 -73.5t51 -37t50.5 -12q91 0 132 106zM425 495v112h-130v40h130v95h47v-95h118v-40h-118v-421q0 -113 24 -191l-44 -6l-19 87q-44 -87 -141 -87q-36 0 -70 15
t-65.5 46.5t-50.5 87.5t-19 130q0 75 21.5 131t55.5 85t67 42.5t64 13.5q74 0 130 -45z" />
    <glyph glyph-name="Hbar" unicode="&#x126;" 
d="M442 394v143h-285v-143h285zM157 720v-143h285v143h47v-143h90v-40h-90v-537h-47v354h-285v-354h-47v537h-90v40h90v143h47z" />
    <glyph glyph-name="hbar" unicode="&#x127;" 
d="M320 596h-143v-182h2q26 54 72.5 90t103.5 36q46 0 86 -38.5t40 -116.5v-385h-47v332q0 168 -87 168q-67 0 -118.5 -71t-51.5 -163v-266h-47v596h-110v40h110v106h47v-106h143v-40z" />
    <glyph glyph-name="dotlessi" unicode="&#x131;" 
d="M289 0v489h-154v40h201v-529h-47z" />
    <glyph glyph-name="IJ" unicode="&#x132;" 
d="M179 720v-40h-58v-640h58v-40h-161v40h56v640h-56v40h161zM527 720v-522q0 -212 -167 -212q-82 0 -123 47t-41 133v128h47v-118q0 -82 27.5 -117t84.5 -35q41 0 67.5 14t38.5 41.5t15.5 54t3.5 65.5v481h-134v40h181z" />
    <glyph glyph-name="ij" unicode="&#x133;" 
d="M27 529h167v-529h-47v489h-120v40zM167 734q22 0 37.5 -15t15.5 -37t-15.5 -37t-37.5 -15t-37 15t-15 37t15 37t37 15zM322 529h169v-500q0 -198 -164 -198q-67 0 -111 45l28 37q34 -42 89 -42q111 0 111 157v461h-122v40zM462 734q22 0 37.5 -15t15.5 -37t-15.5 -37
t-37.5 -15t-37 15t-15 37t15 37t37 15z" />
    <glyph glyph-name="kgreenlandic" unicode="&#x138;" 
d="M503 540v-42q-14 1 -26.5 -2.5t-26.5 -16.5t-20.5 -20t-25 -30l-23.5 -29q-30 -36 -104 -112l256 -288h-63l-221 261l-50 -49v-212h-47v540h47v-272q101 96 169 182q38 48 67 68.5t68 21.5z" />
    <glyph glyph-name="Ldot" unicode="&#x13f;" 
d="M216 720v-680h316v-40h-363v720h47zM448 360q0 23 16.5 39.5t39.5 16.5t39.5 -16.5t16.5 -39.5t-16.5 -39.5t-39.5 -16.5t-39.5 16.5t-16.5 39.5z" />
    <glyph glyph-name="ldot" unicode="&#x140;" 
d="M282 0v702h-156v40h203v-742h-47zM488 360q0 23 16.5 39.5t39.5 16.5t39.5 -16.5t16.5 -39.5t-16.5 -39.5t-39.5 -16.5t-39.5 16.5t-16.5 39.5z" />
    <glyph glyph-name="Lslash" unicode="&#x141;" 
d="M203 413l186 87v-50l-186 -76v-334h315v-40h-362v353l-116 -52v46l116 47v326h47v-307z" />
    <glyph glyph-name="lslash" unicode="&#x142;" 
d="M330 461l139 65v-49l-139 -63v-414h-47v394l-147 -69v47l147 69v261h-157v40h204v-281z" />
    <glyph glyph-name="napostrophe" unicode="&#x149;" 
d="M228 218v-218h-47v265q0 165 -21 268h44l19 -150h2q15 61 71 109t117 48q66 0 94.5 -46.5t28.5 -116.5v-377h-47v355q0 25 -0.5 39t-5 37.5t-12.5 36t-24 22.5t-40 10q-30 0 -60 -15.5t-57.5 -47.5t-44.5 -89t-17 -130zM45 509v42q61 18 78 59q-2 0 -8.5 -1.5t-10.5 -1.5
q-28 0 -44.5 17t-16.5 45t19.5 46.5t46.5 18.5q31 0 50.5 -24.5t19.5 -57.5q0 -50 -40.5 -89t-93.5 -54z" />
    <glyph glyph-name="Eng" unicode="&#x14a;" 
d="M168 296v-296h-47v360q0 226 -21 360h44l19 -199h2q15 83 71 148t117 65q45 0 74 -34t39 -81t10 -107v-512q0 -71 -45.5 -120t-113.5 -49q-81 0 -122 61l34 25q28 -46 87 -46q51 0 82 35.5t31 93.5v483q0 29 -0.5 45t-2.5 45t-7.5 47t-14 37t-23 28t-34.5 9
q-67 0 -123 -103t-56 -295z" />
    <glyph glyph-name="eng" unicode="&#x14b;" 
d="M168 218v-218h-47v265q0 165 -21 268h44l19 -150h2q15 61 71 109t117 48q66 0 94.5 -46.5t28.5 -116.5v-377q0 -71 -45.5 -120t-113.5 -49q-81 0 -122 61l34 25q28 -46 87 -46q51 0 82 35.5t31 93.5v355q0 25 -0.5 39t-5 37.5t-12.5 36t-24 22.5t-40 10q-30 0 -60 -15.5
t-57.5 -47.5t-44.5 -89t-17 -130z" />
    <glyph glyph-name="OE" unicode="&#x152;" 
d="M583 720v-40h-208v-287h145v-40h-145v-313h216v-40h-263q-11 -4 -38 -11q-20 -3 -40 -3q-43 0 -77 13.5t-56 34.5t-38 54t-24 63t-12.5 73t-5.5 71.5t-1 69.5q0 108 16.5 183t48 114t68.5 55.5t86 16.5q33 0 73 -14h255zM328 43v632q-44 19 -77 19q-37 0 -65.5 -14.5
t-46 -41.5t-29 -56.5t-16.5 -71t-6.5 -72t-1.5 -70.5v-6q0 -43 1 -68t5 -71.5t14.5 -75t28 -59.5t47 -46.5t69.5 -15.5q37 0 77 17z" />
    <glyph glyph-name="oe" unicode="&#x153;" 
d="M319 259v-128q0 -53 17 -77.5t54 -24.5q53 0 146 56l17 -39q-99 -57 -162 -57q-57 0 -95 42q-32 -42 -78 -42q-63 0 -115.5 69t-52.5 207q0 133 51.5 204.5t117.5 71.5q41 0 85 -34q34 33 89 33q16 0 30.5 -2.5t40 -18t43 -43t30.5 -84t12 -133.5h-230zM272 66v412
q-10 22 -45 22q-54 0 -92 -55.5t-38 -179.5q0 -116 37 -176t81 -60q34 0 57 37zM319 299h183q0 31 -5 62.5t-17 64.5t-36.5 53.5t-58.5 20.5t-50 -23t-16 -74v-104z" />
    <glyph glyph-name="Scaron" unicode="&#x160;" 
d="M487 653l-28 -35q-88 76 -158 76q-56 0 -94.5 -35t-38.5 -91q0 -43 24 -75t89 -72l59 -36q94 -57 130 -96.5t36 -102.5q0 -92 -55.5 -146t-148.5 -54q-121 0 -203 106l36 29q66 -95 167 -95q64 0 109 42t45 106q0 55 -23 86t-118 87l-67 40q-62 37 -96 77t-34 99
q0 79 53 125t133 46q95 0 183 -81zM300 821l140 104l23 -25l-163 -141l-163 141l23 25z" />
    <glyph glyph-name="scaron" unicode="&#x161;" 
d="M449 484l-20 -39q-77 55 -142 55q-41 0 -73 -27.5t-32 -68.5q0 -29 21.5 -52.5t42.5 -34t53 -22.5l49.5 -20t43 -22t39.5 -30t23.5 -39.5t10.5 -54.5q0 -63 -47.5 -101.5t-111.5 -38.5q-48 0 -104.5 25t-94.5 60l26 38q35 -35 83 -59t92 -24q47 0 78.5 25.5t31.5 71.5
q0 23 -7.5 41.5t-17 30t-29.5 23t-32.5 16.5l-37.5 15q-37 14 -57.5 24t-48 28.5t-40.5 44.5t-13 59q0 55 47 93.5t108 38.5q82 0 159 -56zM300 630l140 104l23 -25l-163 -141l-163 141l23 25z" />
    <glyph glyph-name="Tbar" unicode="&#x166;" 
d="M531 680h-208v-300h137v-40h-137v-340h-47v340h-136v40h136v300h-207v40h462v-40z" />
    <glyph glyph-name="tbar" unicode="&#x167;" 
d="M451 489h-194v-127h194v-40h-194v-194q0 -99 84 -99q80 0 123 94l45 -11q-27 -55 -70.5 -89t-99.5 -34q-129 0 -129 167v166h-119v40h119v127h-119v40h119v170h47v-170h194v-40z" />
    <glyph glyph-name="Ydieresis" unicode="&#x178;" 
d="M281 360l152 360h53l-181 -415v-305h-47v305l-181 415h53zM132 843q0 23 16.5 39.5t39.5 16.5t39.5 -16.5t16.5 -39.5t-16.5 -39.5t-39.5 -16.5t-39.5 16.5t-16.5 39.5zM315 843q0 23 16.5 39.5t39.5 16.5t39.5 -16.5t16.5 -39.5t-16.5 -39.5t-39.5 -16.5t-39.5 16.5
t-16.5 39.5z" />
    <glyph glyph-name="Zcaron" unicode="&#x17d;" 
d="M124 720h355v-40l-310 -640h334v-40h-390v40l313 640h-302v40zM300 821l140 104l23 -25l-163 -141l-163 141l23 25z" />
    <glyph glyph-name="zcaron" unicode="&#x17e;" 
d="M147 529h339v-40l-325 -449h337v-40h-396v40l328 449h-283v40zM300 630l140 104l23 -25l-163 -141l-163 141l23 25z" />
    <glyph glyph-name="florin" unicode="&#x192;" 
d="M348 491h112v-40h-118l-52 -404q-12 -97 -44.5 -136.5t-125.5 -39.5h-20v40h19q27 0 46.5 3t32.5 13t20.5 18t13 29.5t7.5 34.5t6 45l47 397h-113v40h120l9 73q13 102 49.5 140t103.5 38h37v-40h-42q-26 0 -45 -9t-29 -21t-16.5 -34t-8.5 -38t-4 -42z" />
    <glyph glyph-name="circumflex" unicode="&#x2c6;" 
d="M300 675l-140 -105l-23 25l163 142l163 -142l-23 -25z" />
    <glyph glyph-name="caron" unicode="&#x2c7;" 
d="M300 630l140 104l23 -25l-163 -141l-163 141l23 25z" />
    <glyph glyph-name="uni02C9" unicode="&#x2c9;" 
d="M444 631h-288v40h288v-40z" />
    <glyph glyph-name="breve" unicode="&#x2d8;" 
d="M128 712h44q10 -81 128 -81t128 81h44q-15 -121 -165 -121q-52 0 -88 10.5t-54 30t-25.5 37.5t-11.5 43z" />
    <glyph glyph-name="dotaccent" unicode="&#x2d9;" 
d="M244 651q0 23 16.5 39.5t39.5 16.5t39.5 -16.5t16.5 -39.5t-16.5 -39.5t-39.5 -16.5t-39.5 16.5t-16.5 39.5z" />
    <glyph glyph-name="ring" unicode="&#x2da;" 
d="M213 660q0 34 24 58t58 24t58 -24t24 -58t-24 -58t-58 -24t-58 24t-24 58zM249 660q0 -19 13.5 -32.5t32.5 -13.5t32.5 13.5t13.5 32.5t-13.5 32.5t-32.5 13.5t-32.5 -13.5t-13.5 -32.5z" />
    <glyph glyph-name="ogonek" unicode="&#x2db;" 
d="M353 -141v-37q-59 -22 -91 -22q-49 0 -82.5 23.5t-33.5 69.5q0 69 81 107h57q-7 -9 -43 -33q-48 -31 -48 -72q0 -31 18.5 -43t53.5 -12q41 0 88 19z" />
    <glyph glyph-name="tilde" unicode="&#x2dc;" 
d="M447 692l37 -15q-14 -33 -40.5 -55.5t-60.5 -22.5q-33 0 -84 32q-48 32 -76 32q-42 0 -71 -67l-36 13q42 94 111 94q9 0 17.5 -1.5t18.5 -6t14 -6.5t16.5 -9.5t14.5 -8.5q55 -33 74 -33q44 0 65 54z" />
    <glyph glyph-name="hungarumlaut" unicode="&#x2dd;" 
d="M457 734l37 -42l-174 -118l-22 30zM265 734l37 -42l-174 -118l-22 30z" />
    <glyph glyph-name="Gamma" unicode="&#x393;" 
d="M160 720h338v-47h-291v-673h-47v720z" />
    <glyph glyph-name="Theta" unicode="&#x398;" 
d="M300 -14q-47 0 -93.5 24.5t-86 70t-63.5 118.5t-24 161q0 90 25 163.5t64.5 118t85.5 68.5t92 24q102 0 184.5 -101.5t82.5 -272.5q0 -90 -24.5 -163.5t-64 -118t-86 -68.5t-92.5 -24zM300 694q-83 0 -151.5 -87t-68.5 -247q0 -86 22 -153.5t56 -105t70.5 -56.5t71.5 -19
t72 20t71 58.5t55.5 105.5t21.5 150q0 87 -22.5 155t-58 105t-71 55.5t-68.5 18.5zM154 392h291v-50h-291v50z" />
    <glyph glyph-name="Phi" unicode="&#x3a6;" 
d="M277 734h47v-62q77 0 135.5 -48.5t85.5 -117.5t27 -145q0 -120 -67 -217t-181 -96v-62h-47v62q-116 1 -182.5 94.5t-66.5 214.5q0 76 26.5 146.5t85 119.5t137.5 48v63zM277 88v543q-52 5 -92.5 -20t-63.5 -68.5t-34.5 -91.5t-11.5 -95q0 -63 20 -123.5t68 -104.5
t114 -40zM324 632v-543q66 -4 113.5 40t67.5 104.5t20 124.5q0 48 -11.5 95.5t-34.5 89.5t-63.5 67t-91.5 22z" />
    <glyph glyph-name="uni03A9" unicode="&#x3a9;" 
d="M342 0v125q59 6 98 49.5t53 96t14 112.5q0 51 -10 101.5t-31.5 99.5t-62.5 79.5t-96 30.5q-71 0 -121.5 -51t-71.5 -117.5t-21 -135.5q0 -46 10 -89.5t30.5 -82.5t57 -64t85.5 -29v-125h-227v40h180v64q-61 12 -104 61t-61 108.5t-18 123.5q0 83 27.5 157.5t89 127
t146.5 52.5q65 0 109.5 -27.5t78.5 -84.5q57 -95 57 -225q0 -44 -9 -89t-27.5 -88t-51.5 -74.5t-77 -41.5v-64h162v-40h-209z" />
    <glyph glyph-name="alpha" unicode="&#x3b1;" 
d="M245 500q-54 0 -94.5 -69t-40.5 -182q0 -63 14 -109t36.5 -68.5t43.5 -32.5t41 -10q46 0 80 46.5t47.5 101t13.5 101.5q0 46 -13 94.5t-47 88t-81 39.5zM420 327l69 217l42 -12l-94 -260l75 -271h-43l-50 207h-2q-8 -37 -14.5 -61t-20.5 -57t-31 -52.5t-45.5 -34
t-63.5 -14.5q-28 0 -56 12.5t-57 40t-47.5 83t-18.5 130.5q0 72 18 129.5t46.5 90t59 49t58.5 16.5q79 0 121 -62.5t52 -150.5h2z" />
    <glyph glyph-name="delta" unicode="&#x3b4;" 
d="M457 237q0 78 -42 140t-117 62q-76 0 -121 -74q-34 -56 -34 -135q0 -75 42 -139.5t113 -64.5q74 0 116.5 66t42.5 145zM326 470l-171 178v72h294v-40h-272l242 -247q85 -88 85 -196q0 -97 -56.5 -174t-149.5 -77q-90 0 -146 77t-56 169q0 63 19 113.5t48 78t59.5 41.5
t58.5 14t43 -11z" />
    <glyph glyph-name="epsilon" unicode="&#x3b5;" 
d="M361 305v-40q-86 0 -140 -31t-54 -96q0 -44 47 -76.5t121 -32.5q104 0 161 70l42 -18q-79 -92 -205 -92q-93 0 -153 43.5t-60 111.5q0 52 39.5 89.5t108.5 54.5q-52 16 -83.5 47.5t-31.5 71.5q0 55 53 94t128 39q101 0 150 -46l-40 -20q-36 26 -106 26
q-65 0 -101.5 -27.5t-36.5 -56.5q0 -49 47 -80t114 -31z" />
    <glyph glyph-name="uni03BC" unicode="&#x3bc;" 
d="M426 226v292h47v-518h-47v93h-2q-17 -43 -49 -73.5t-73 -30.5q-43 0 -76 28t-50 70h-2v-319h-47v750h47v-308q0 -95 38.5 -138t84.5 -43q21 0 41.5 9t41.5 29.5t33.5 61.5t12.5 97z" />
    <glyph glyph-name="pi" unicode="&#x3c0;" 
d="M51 529h498v-47h-110v-482h-47v482h-184v-482h-47v482h-110v47z" />
    <glyph glyph-name="sigma" unicode="&#x3c3;" 
d="M535 519v-35l-218 11l-2 -2q75 -15 114.5 -88t39.5 -157q0 -68 -21.5 -121t-54.5 -81.5t-64.5 -42.5t-58.5 -14q-93 0 -149 84t-56 182q0 119 68 198q28 31 65.5 46.5t65 17.5t80.5 2h191zM422 258q0 48 -15.5 97t-52.5 86.5t-87 37.5q-24 0 -49 -12t-49.5 -36.5
t-40.5 -70t-16 -103.5q0 -53 12.5 -95t30.5 -66t40.5 -40t40.5 -21.5t33 -5.5q50 0 101.5 57.5t51.5 171.5z" />
    <glyph glyph-name="tau" unicode="&#x3c4;" 
d="M498 529v-47h-170v-482h-47v482h-114q-35 0 -66 -10v43q44 14 81 14h316z" />
    <glyph glyph-name="uni03D5" unicode="&#x3d5;" 
d="M284 30v469q-39 -5 -66.5 -28t-41 -58.5t-19 -71t-5.5 -76.5q0 -218 132 -235zM331 499v-469q39 5 66.5 28t41 58.5t19 71.5t5.5 77q0 218 -132 234zM331 670v-130q33 -4 62.5 -19.5t56.5 -46t43.5 -84.5t16.5 -125t-16 -125t-43.5 -84.5t-57 -46.5t-62.5 -20v-110h-47
v110q-74 9 -126.5 74.5t-52.5 201.5q0 133 52 199.5t127 75.5v130h47z" />
    <glyph glyph-name="uni2010" unicode="&#x2010;" 
d="M418 339h-236v40h236v-40z" />
    <glyph glyph-name="endash" unicode="&#x2013;" 
d="M476 339h-352v40h352v-40z" />
    <glyph glyph-name="emdash" unicode="&#x2014;" 
d="M600 339h-600v40h600v-40z" />
    <glyph glyph-name="underscoredbl" unicode="&#x2017;" 
d="M600 -108h-600v36h600v-36zM600 -216h-600v36h600v-36z" />
    <glyph glyph-name="quoteleft" unicode="&#x2018;" 
d="M377 734v-42q-61 -18 -78 -59q2 0 8.5 1.5t10.5 1.5q28 0 44.5 -17t16.5 -45t-19.5 -46.5t-46.5 -18.5q-31 0 -50.5 24.5t-19.5 57.5q0 50 40.5 89t93.5 54z" />
    <glyph glyph-name="quoteright" unicode="&#x2019;" 
d="M245 509v42q61 18 78 59q-2 0 -8.5 -1.5t-10.5 -1.5q-28 0 -44.5 17t-16.5 45t19.5 46.5t46.5 18.5q31 0 50.5 -24.5t19.5 -57.5q0 -50 -40.5 -89t-93.5 -54z" />
    <glyph glyph-name="quotesinglbase" unicode="&#x201a;" 
d="M245 -109v42q61 18 78 59q-4 0 -10 -2q-1 0 -4 -0.5t-5 -0.5q-28 0 -44.5 17t-16.5 45t19.5 46.5t46.5 18.5q31 0 50.5 -24.5t19.5 -57.5q0 -50 -40.5 -89t-93.5 -54z" />
    <glyph glyph-name="quotereversed" unicode="&#x201b;" 
d="M373 551v-42q-53 15 -93.5 54t-40.5 89q0 33 19.5 57.5t50.5 24.5q27 0 46.5 -18.5t19.5 -46.5t-16.5 -45t-44.5 -17q-3 0 -6 0.5t-6.5 1.5t-6.5 1q17 -41 78 -59z" />
    <glyph glyph-name="quotedblleft" unicode="&#x201c;" 
d="M265 734v-42q-61 -18 -78 -59q2 0 8.5 1.5t10.5 1.5q28 0 44.5 -17t16.5 -45t-19.5 -46.5t-46.5 -18.5q-31 0 -50.5 24.5t-19.5 57.5q0 50 40.5 89t93.5 54zM488 734v-42q-61 -18 -78 -59q2 0 9 1.5t10 1.5q28 0 44.5 -17t16.5 -45t-19.5 -46.5t-46.5 -18.5
q-32 0 -51 24.5t-19 57.5q0 50 40.5 89t93.5 54z" />
    <glyph glyph-name="quotedblright" unicode="&#x201d;" 
d="M133 509v42q61 18 78 59q-2 0 -8.5 -1.5t-10.5 -1.5q-28 0 -44.5 17t-16.5 45t19.5 46.5t46.5 18.5q31 0 50.5 -24.5t19.5 -57.5q0 -50 -40.5 -89t-93.5 -54zM356 509v42q61 18 78 59q-2 0 -8.5 -1.5t-10.5 -1.5q-28 0 -44.5 17t-16.5 45t19.5 46.5t46.5 18.5
q32 0 51 -24.5t19 -57.5q0 -50 -40.5 -89t-93.5 -54z" />
    <glyph glyph-name="quotedblbase" unicode="&#x201e;" 
d="M133 -109v42q61 18 78 59q-4 0 -10 -2q-1 0 -4 -0.5t-5 -0.5q-28 0 -44.5 17t-16.5 45t19.5 46.5t46.5 18.5q31 0 50.5 -24.5t19.5 -57.5q0 -50 -40.5 -89t-93.5 -54zM356 -109v42q61 18 78 59q-4 0 -10 -2q-1 0 -4 -0.5t-5 -0.5q-28 0 -44.5 17t-16.5 45t19.5 46.5
t46.5 18.5q32 0 51 -24.5t19 -57.5q0 -50 -40.5 -89t-93.5 -54z" />
    <glyph glyph-name="dagger" unicode="&#x2020;" 
d="M330 376l-10 -376h-40l-10 376l7 99l-132 -8v54l132 -7l-8 206h62l-8 -206l132 7v-54l-132 8z" />
    <glyph glyph-name="daggerdbl" unicode="&#x2021;" 
d="M278 492l-133 -7v54l132 -8l-8 189h65l-8 -189l132 8v-54l-133 7v-265l133 8v-54l-132 7l8 -188h-65l8 188l-132 -7v54l133 -8v265z" />
    <glyph glyph-name="bullet" unicode="&#x2022;" 
d="M177 252q0 50 36.5 86.5t86.5 36.5t86.5 -36.5t36.5 -86.5q0 -51 -36 -87t-87 -36q-52 0 -87.5 35.5t-35.5 87.5z" />
    <glyph glyph-name="ellipsis" unicode="&#x2026;" 
d="M38 48q0 26 18.5 44.5t43.5 18.5q26 0 44.5 -18.5t18.5 -44.5q0 -25 -18.5 -43.5t-44.5 -18.5t-44 18t-18 44zM237 48q0 26 18.5 44.5t43.5 18.5t44 -18.5t19 -44.5q0 -25 -18.5 -43.5t-44.5 -18.5q-25 0 -43.5 18t-18.5 44zM436 48q0 26 18.5 44.5t43.5 18.5
q26 0 44.5 -18.5t18.5 -44.5q0 -25 -18.5 -43.5t-44.5 -18.5t-44 18t-18 44z" />
    <glyph glyph-name="perthousand" unicode="&#x2030;" 
d="M81 545q0 -68 42 -68q21 0 37.5 18.5t24.5 46t11.5 52t3.5 44.5q0 66 -41 66q-22 0 -38 -18t-24.5 -45t-12 -51.5t-3.5 -44.5zM373 734h42l-368 -734h-42zM37 553q0 40 11.5 79.5t41 70.5t71.5 31q41 0 62 -27.5t21 -70.5q0 -30 -7 -61t-20.5 -60.5t-39 -48.5t-57.5 -19
q-83 0 -83 106zM391 95q0 40 11.5 79.5t41 70.5t71.5 31q41 0 62 -27.5t21 -70.5q0 -30 -7 -61t-20.5 -60.5t-39 -48.5t-57.5 -19q-83 0 -83 106zM435 87q0 -68 42 -68q21 0 37.5 18.5t24.5 46t11.5 52t3.5 44.5q0 66 -41 66q-22 0 -38 -18t-24.5 -45t-12 -51.5t-3.5 -44.5z
M162 95q0 40 11.5 79.5t41 70.5t71.5 31q41 0 62 -27.5t21 -70.5q0 -30 -7 -61t-20.5 -60.5t-39 -48.5t-57.5 -19q-83 0 -83 106zM206 87q0 -68 42 -68q21 0 37.5 18.5t24.5 46t11.5 52t3.5 44.5q0 66 -41 66q-22 0 -38 -18t-24.5 -45t-12 -51.5t-3.5 -44.5z" />
    <glyph glyph-name="guilsinglleft" unicode="&#x2039;" 
d="M393 605l29 -30l-229 -219l229 -219l-29 -32l-259 251z" />
    <glyph glyph-name="guilsinglright" unicode="&#x203a;" 
d="M207 605l259 -249l-259 -251l-29 32l229 219l-229 219z" />
    <glyph glyph-name="exclamdbl" unicode="&#x203c;" 
d="M220 720l-13 -493h-40l-17 493h70zM115 53q0 28 19.5 48t47.5 20t48 -20t20 -48t-20 -47.5t-48 -19.5t-47.5 19.5t-19.5 47.5zM450 720l-13 -493h-40l-17 493h70zM345 53q0 28 19.5 48t47.5 20t48 -20t20 -48t-20 -47.5t-48 -19.5t-47.5 19.5t-19.5 47.5z" />
    <glyph glyph-name="uni203E" unicode="&#x203e;" 
d="M450 728h-300v36h300v-36z" />
    <glyph glyph-name="fraction" unicode="&#x2044;" 
d="M447 734h41l-332 -734h-38z" />
    <glyph glyph-name="n.superior" unicode="&#x207f;" 
d="M227 541v-131h-40v159q0 99 -14 161h33l13 -90h2q9 36 45 65t76 29q44 0 64.5 -28.5t20.5 -69.5v-226h-40v213v11v11.5t-0.5 10t-1.5 10.5t-2.5 9t-4 8.5t-6 6.5t-8.5 5.5t-11.5 3t-14.5 1.5q-44 0 -77.5 -37.5t-33.5 -121.5z" />
    <glyph glyph-name="franc" unicode="&#x20a3;" 
d="M329 720v-40h-262v-284h182v-40h-182v-356h-47v720h309zM331 194v-194h-42v329l-17 153h40l17 -136q66 140 163 140q54 0 76.5 -42.5t22.5 -101.5h-42q0 18 -1 28.5t-4.5 28t-9.5 27t-17.5 17t-28.5 7.5q-20 0 -45.5 -15.5t-51 -44.5t-43 -81t-17.5 -115z" />
    <glyph glyph-name="peseta" unicode="&#x20a7;" 
d="M23 0v720h101q104 0 151 -61.5t47 -153.5q0 -104 -59 -158t-163 -54h-30v-293h-47zM70 680v-347h23q91 0 135 45.5t44 125.5q0 94 -41 135t-104 41h-57zM278 344h74v111h47v-111h137v-31h-137v-232q0 -23 13 -39t40 -16q53 0 85 51l33 -7q-15 -35 -46.5 -58t-72.5 -23
q-99 0 -99 110v214h-74v31z" />
    <glyph glyph-name="Euro" unicode="&#x20ac;" 
d="M368 320v-41h-201q13 -251 172 -251q60 0 96.5 39.5t36.5 87.5v4h43q0 -15 -3.5 -34t-15.5 -44t-30 -45t-51 -34t-75 -14q-200 0 -219 291h-61v41h59v80h-59v41h62q3 39 9.5 75t22 77t38.5 70.5t61.5 49.5t88.5 20q70 0 115 -40.5t49 -109.5h-44q0 39 -32 74t-88 35
q-46 0 -80.5 -22.5t-53.5 -61t-28.5 -79.5t-12.5 -88h215v-41h-217v-80h203z" />
    <glyph glyph-name="uni20B9" unicode="&#x20b9;" 
d="M120 599h228q-35 70 -127 80h-101v41h438v-41h-221q43 -31 63 -80h158v-41h-147q5 -25 5 -46q0 -97 -57.5 -152.5t-159.5 -69.5l296 -290h-63l-293 291v40h7q104 0 162 48t58 137q0 14 -4 42h-242v41z" />
    <glyph glyph-name="uni2113" unicode="&#x2113;" 
d="M493 133l26 -18q-67 -123 -186 -123q-83 0 -125 58.5t-43 144.5q0 3 0.5 7.5t0.5 6.5l-66 -54l-19 30q76 63 84 71v300q0 68 13.5 117t36.5 74t46.5 36t49.5 11q60 0 92 -45t32 -113q0 -176 -231 -395v-27q0 -96 39 -142.5t95 -46.5q51 0 91.5 32.5t63.5 75.5zM204 564
v-276q94 97 144.5 178t50.5 164q0 129 -90 129q-41 0 -73 -48t-32 -147z" />
    <glyph glyph-name="trademark" unicode="&#x2122;" 
d="M572 734v-282h-40v242h-2l-96 -242h-26l-93 242h-2v-242h-40v282h68l81 -199l84 199h66zM239 734v-40h-94v-242h-40v242h-95v40h229z" />
    <glyph glyph-name="Omega" unicode="&#x2126;" 
d="M342 0v125q59 6 98 49.5t53 96t14 112.5q0 51 -10 101.5t-31.5 99.5t-62.5 79.5t-96 30.5q-71 0 -121.5 -51t-71.5 -117.5t-21 -135.5q0 -46 10 -89.5t30.5 -82.5t57 -64t85.5 -29v-125h-227v40h180v64q-61 12 -104 61t-61 108.5t-18 123.5q0 83 27.5 157.5t89 127
t146.5 52.5q65 0 109.5 -27.5t78.5 -84.5q57 -95 57 -225q0 -44 -9 -89t-27.5 -88t-51.5 -74.5t-77 -41.5v-64h162v-40h-209z" />
    <glyph glyph-name="estimated" unicode="&#x212e;" 
d="M602 255h-489q-4 0 -4 -4v-148q0 -9 6 -17q78 -80 185 -80q116 0 195 90h43q-40 -49 -103 -77t-135 -28q-125 0 -213.5 79.5t-88.5 191.5q0 113 88.5 192.5t213.5 79.5t213.5 -79.5t88.5 -192.5v-7zM491 274v149q0 11 -7 17q-80 78 -184 78t-184 -80q-7 -7 -7 -19v-145
q0 -5 4 -5h375q3 0 3 5z" />
    <glyph glyph-name="oneeighth" unicode="&#x215b;" 
d="M364 105q0 -38 23.5 -59t62.5 -21t62.5 21t23.5 59t-24 59.5t-62 21.5t-62 -21.5t-24 -59.5zM523 291q0 34 -19.5 53.5t-54.5 19.5q-72 0 -72 -79q0 -31 21 -49t51 -18q34 0 54 19.5t20 53.5zM388 205q-27 18 -39 36.5t-12 49.5q0 49 32 77t81 28t81 -28t32 -77
q0 -30 -11.5 -48t-38.5 -39q34 -20 48.5 -41t14.5 -58q0 -54 -35 -83t-91 -29t-91 29t-35 83q0 37 14.5 58.5t49.5 41.5zM171 734v-375h72v-32h-186v32h74v327l-78 -24v35zM447 734h40l-329 -734h-40z" />
    <glyph glyph-name="threeeighths" unicode="&#x215c;" 
d="M364 105q0 -38 23.5 -59t62.5 -21t62.5 21t23.5 59t-24 59.5t-62 21.5t-62 -21.5t-24 -59.5zM523 291q0 34 -19.5 53.5t-54.5 19.5q-72 0 -72 -79q0 -31 21 -49t51 -18q34 0 54 19.5t20 53.5zM388 205q-27 18 -39 36.5t-12 49.5q0 49 32 77t81 28t81 -28t32 -77
q0 -30 -11.5 -48t-38.5 -39q34 -20 48.5 -41t14.5 -58q0 -54 -35 -83t-91 -29t-91 29t-35 83q0 37 14.5 58.5t49.5 41.5zM122 531v32q35 -2 61 18.5t26 55.5q0 28 -20.5 46.5t-49.5 18.5q-24 0 -44 -16.5t-31 -39.5l-34 19q38 69 114 69q43 0 74 -29t31 -72q0 -53 -54 -84
q71 -31 71 -102q0 -52 -34 -84.5t-86 -32.5q-42 0 -70 18t-52 55l35 21q29 -62 87 -62q35 0 57.5 22t22.5 57q0 90 -104 90zM447 734h40l-329 -734h-40z" />
    <glyph glyph-name="fiveeighths" unicode="&#x215d;" 
d="M364 105q0 -38 23.5 -59t62.5 -21t62.5 21t23.5 59t-24 59.5t-62 21.5t-62 -21.5t-24 -59.5zM523 291q0 34 -19.5 53.5t-54.5 19.5q-72 0 -72 -79q0 -31 21 -49t51 -18q34 0 54 19.5t20 53.5zM388 205q-27 18 -39 36.5t-12 49.5q0 49 32 77t81 28t81 -28t32 -77
q0 -30 -11.5 -48t-38.5 -39q34 -20 48.5 -41t14.5 -58q0 -54 -35 -83t-91 -29t-91 29t-35 83q0 37 14.5 58.5t49.5 41.5zM237 734v-32h-140l-11 -140q29 26 69 26q48 0 77.5 -35.5t29.5 -84.5q0 -56 -31 -93.5t-85 -37.5q-61 0 -105 64l31 23q28 -55 77 -55q34 0 53.5 28.5
t19.5 63.5q0 38 -18 66.5t-54 28.5q-39 0 -64 -45l-41 8l16 215h176zM447 734h41l-332 -734h-38z" />
    <glyph glyph-name="seveneighths" unicode="&#x215e;" 
d="M364 105q0 -38 23.5 -59t62.5 -21t62.5 21t23.5 59t-24 59.5t-62 21.5t-62 -21.5t-24 -59.5zM523 291q0 34 -19.5 53.5t-54.5 19.5q-72 0 -72 -79q0 -31 21 -49t51 -18q34 0 54 19.5t20 53.5zM388 205q-27 18 -39 36.5t-12 49.5q0 49 32 77t81 28t81 -28t32 -77
q0 -30 -11.5 -48t-38.5 -39q34 -20 48.5 -41t14.5 -58q0 -54 -35 -83t-91 -29t-91 29t-35 83q0 37 14.5 58.5t49.5 41.5zM58 734h221l-154 -389h-43l145 357h-169v32zM411 734h40l-329 -734h-40z" />
    <glyph glyph-name="uni2190" unicode="&#x2190;" 
d="M136 382h460v-44h-460q13 -20 31 -63t18 -60q0 -16 -14 -16q-8 0 -21 20q-56 83 -125 123q-21 10 -21 18t21 18q69 40 125 123q13 20 21 20q14 0 14 -16q0 -17 -18 -60t-31 -63z" />
    <glyph glyph-name="arrowup" unicode="&#x2191;" 
d="M322 524v-460h-44v460q-20 -13 -63 -31t-60 -18q-16 0 -16 14q0 8 20 21q83 56 123 125q10 21 18 21t18 -21q40 -69 123 -125q20 -13 20 -21q0 -14 -16 -14q-17 0 -60 18t-63 31z" />
    <glyph glyph-name="uni2192" unicode="&#x2192;" 
d="M4 382h460q-13 20 -31 63t-18 60q0 16 14 16q8 0 21 -20q56 -83 125 -123q21 -10 21 -18t-21 -18q-69 -40 -125 -123q-13 -20 -21 -20q-14 0 -14 16q0 17 18 60t31 63h-460v44z" />
    <glyph glyph-name="arrowdown" unicode="&#x2193;" 
d="M322 656v-460q20 13 63 31t60 18q16 0 16 -14q0 -8 -20 -21q-83 -56 -123 -125q-10 -21 -18 -21t-18 21q-40 69 -123 125q-20 13 -20 21q0 14 16 14q17 0 60 -18t63 -31v460h44z" />
    <glyph glyph-name="arrowboth" unicode="&#x2194;" 
d="M464 338h-328q13 -20 31 -63t18 -60q0 -16 -14 -16q-8 0 -21 20q-56 83 -125 123q-21 10 -21 18t21 18q69 40 125 123q13 20 21 20q14 0 14 -16q0 -17 -18 -60t-31 -63h328q-13 20 -31 63t-18 60q0 16 14 16q8 0 21 -20q56 -83 125 -123q21 -10 21 -18t-21 -18
q-69 -40 -125 -123q-13 -20 -21 -20q-14 0 -14 16q0 17 18 60t31 63z" />
    <glyph glyph-name="arrowupdn" unicode="&#x2195;" 
d="M278 196v328q-20 -13 -63 -31t-60 -18q-16 0 -16 14q0 8 20 21q83 56 123 125q10 21 18 21t18 -21q40 -69 123 -125q20 -13 20 -21q0 -14 -16 -14q-17 0 -60 18t-63 31v-328q20 13 63 31t60 18q16 0 16 -14q0 -8 -20 -21q-83 -56 -123 -125q-10 -21 -18 -21t-18 21
q-40 69 -123 125q-20 13 -20 21q0 14 16 14q17 0 60 -18t63 -31z" />
    <glyph glyph-name="arrowupdnbse" unicode="&#x21a8;" 
d="M278 261v328q-20 -13 -63 -31t-60 -18q-16 0 -16 14q0 8 20 21q83 56 123 125q10 21 18 21t18 -21q40 -69 123 -125q20 -13 20 -21q0 -14 -16 -14q-17 0 -60 18t-63 31v-328q20 13 63 31t60 18q16 0 16 -14q0 -8 -20 -21q-83 -56 -123 -125q-10 -21 -18 -21t-18 21
q-40 69 -123 125q-20 13 -20 21q0 14 16 14q17 0 60 -18t63 -31zM461 44v-44h-322v44h322z" />
    <glyph glyph-name="partialdiff" unicode="&#x2202;" 
d="M129 717l-21 29q71 57 168 57q105 0 180 -101t75 -288q0 -116 -27.5 -209.5t-89.5 -154t-149 -60.5q-64 0 -109.5 35t-66 86.5t-20.5 113.5q0 114 67 186t158 72q72 0 123 -38.5t70 -76.5h1q2 15 2 54q0 157 -64.5 251.5t-151.5 94.5q-81 0 -145 -51zM267 25h2
q84 0 141 83t70 206q-17 48 -67 91t-116 43q-75 0 -130 -64t-55 -155q0 -89 42.5 -146.5t112.5 -57.5z" />
    <glyph glyph-name="Delta" unicode="&#x2206;" 
d="M10 1l-1 39l268 704h47l267 -704v-39h-581zM52 37h493l-171 456q-54 142 -72 199h-5q-10 -38 -63 -181z" />
    <glyph glyph-name="product" unicode="&#x220f;" 
d="M601 683h-105v-781h-41v781h-309v-781h-41v781h-106v39h602v-39z" />
    <glyph glyph-name="summation" unicode="&#x2211;" 
d="M165 680l213 -300l-219 -340h316v-40h-350v58l202 324l-202 282v56h347v-40h-307z" />
    <glyph glyph-name="minus" unicode="&#x2212;" 
d="M566 382v-44h-532v44h532z" />
    <glyph glyph-name="uni2215" unicode="&#x2215;" 
d="M447 734h41l-332 -734h-38z" />
    <glyph glyph-name="uni2219" unicode="&#x2219;" 
d="M233 360q0 28 19.5 48t47.5 20t48 -20t20 -48t-20 -47.5t-48 -19.5t-47.5 19.5t-19.5 47.5z" />
    <glyph glyph-name="radical" unicode="&#x221a;" 
d="M3 433h142l79 -298l194 662h179v-44h-147l-226 -764l-115 400h-106v44z" />
    <glyph glyph-name="infinity" unicode="&#x221e;" 
d="M300 320q-37 -56 -76 -88t-93 -32q-64 0 -96.5 47t-32.5 113t32.5 113t96.5 47q54 0 93 -32t76 -88q37 56 76 88t93 32q64 0 96.5 -47t32.5 -113t-32.5 -113t-96.5 -47q-54 0 -93 32t-76 88zM46 359q0 -48 20.5 -83.5t64.5 -35.5q27 0 57.5 22t47 42t39.5 51
q-68 117 -141 117q-43 0 -65.5 -34t-22.5 -79zM554 363q0 45 -22.5 79t-65.5 34q-73 0 -141 -117q23 -31 39.5 -51t47 -42t57.5 -22q44 0 64.5 35.5t20.5 83.5z" />
    <glyph glyph-name="intersection" unicode="&#x2229;" 
d="M590 0h-44v444q0 101 -75.5 176t-170.5 75t-170.5 -75t-75.5 -176v-444h-44v433q0 127 83.5 214t206.5 87t206.5 -87t83.5 -214v-433z" />
    <glyph glyph-name="integral" unicode="&#x222b;" 
d="M466 858l-12 -30q-15 13 -41 13q-34 0 -54 -23q-42 -45 -42 -192q0 -78 7 -267t7 -267q0 -145 -50 -209q-30 -39 -84 -39q-38 0 -63 18l12 31q25 -14 51 -14q32 0 51 25q42 51 42 190q0 79 -7 269t-7 267q0 157 53 209q36 36 83 36q33 0 54 -17z" />
    <glyph glyph-name="approxequal" unicode="&#x2248;" 
d="M549 373l32 -23q-25 -47 -64.5 -80.5t-85.5 -33.5q-30 0 -122.5 37.5t-117.5 37.5q-27 0 -50.5 -16t-34.5 -30.5t-29 -45.5q-3 -5 -5 -8l-32 23q68 121 145 121q44 0 131.5 -37.5t112.5 -37.5q36 0 68.5 28t51.5 65zM527 509l33 -23q-25 -47 -64.5 -80.5t-85.5 -33.5
q-30 0 -122.5 37.5t-117.5 37.5q-27 0 -50.5 -16t-34.5 -30.5t-29 -45.5q-3 -5 -5 -8l-32 23q68 121 145 121q44 0 131.5 -37.5t112.5 -37.5q36 0 68.5 28t50.5 65z" />
    <glyph glyph-name="notequal" unicode="&#x2260;" 
d="M267 266l-69 -132l-37 20l61 112h-178v43h200l56 105h-256v43h278q10 21 33 64t34 66q23 -11 36 -20l-58 -110h189v-43h-211l-57 -105h268v-43h-289z" />
    <glyph glyph-name="equivalence" unicode="&#x2261;" 
d="M566 516v-44h-532v44h532zM566 382v-44h-532v44h532zM566 248v-44h-532v44h532z" />
    <glyph glyph-name="lessequal" unicode="&#x2264;" 
d="M98 432l378 288l26 -35l-334 -253l334 -253l-26 -35zM98 0v44h404v-44h-404z" />
    <glyph glyph-name="greaterequal" unicode="&#x2265;" 
d="M124 720l378 -288l-378 -288l-26 35l334 253l-334 253zM98 0v44h404v-44h-404z" />
    <glyph glyph-name="dotmath" unicode="&#x22c5;" 
d="M250 360q0 15 10.5 25.5t25.5 10.5t25.5 -10.5t10.5 -25.5t-10.5 -25.5t-25.5 -10.5t-25.5 10.5t-10.5 25.5z" />
    <glyph glyph-name="house" unicode="&#x2302;" 
d="M590 0h-580v406l290 169l290 -169v-406zM40 30h520v361l-260 152l-260 -152v-361z" />
    <glyph glyph-name="uni2304" unicode="&#x2304;" 
d="M110 680h50l140 -275l137 275h50l-161 -323h-52z" />
    <glyph glyph-name="revlogicalnot" unicode="&#x2310;" 
d="M74 0h-44v276h540v-44h-496v-232z" />
    <glyph glyph-name="uni2319" unicode="&#x2319;" 
d="M30 276h44v-232h496v-44h-540v276z" />
    <glyph glyph-name="integraltp" unicode="&#x2320;" 
d="M279 -288v264v22v75.5t3.5 85.5t10 94.5t20 85.5t32.5 76.5t49.5 48.5t69.5 20q56 0 96 -43t40 -96q0 -58 -41 -58q-24 0 -35.5 24.5t-14 54t-16 54t-40.5 24.5q-52 0 -82 -67q-20 -46 -34 -121t-14 -130v-414h-44z" />
    <glyph glyph-name="integralbt" unicode="&#x2321;" 
d="M323 792v-264v-22v-75.5t-3.5 -85.5t-10 -94.5t-20 -85.5t-32.5 -76.5t-49.5 -48.5t-69.5 -20q-56 0 -96 43t-40 96q0 58 41 58q24 0 35.5 -24.5t14 -54t16 -54t40.5 -24.5q52 0 82 67q20 46 34 121t14 130v414h44z" />
    <glyph glyph-name="uni2500" unicode="&#x2500;" 
d="M-20 216v72h640v-72h-640z" />
    <glyph glyph-name="uni2502" unicode="&#x2502;" 
d="M264 -288v1080h72v-1080h-72z" />
    <glyph glyph-name="uni250C" unicode="&#x250c;" 
d="M264 -288v576h356v-72h-284v-504h-72z" />
    <glyph glyph-name="uni2510" unicode="&#x2510;" 
d="M336 288v-576h-72v504h-284v72h356z" />
    <glyph glyph-name="uni2514" unicode="&#x2514;" 
d="M264 216v576h72v-504h284v-72h-356z" />
    <glyph glyph-name="uni2518" unicode="&#x2518;" 
d="M336 792v-576h-356v72h284v504h72z" />
    <glyph glyph-name="uni251C" unicode="&#x251c;" 
d="M264 -288v1080h72v-504h284v-72h-284v-504h-72z" />
    <glyph glyph-name="uni2524" unicode="&#x2524;" 
d="M-20 216v72h284v504h72v-1080h-72v504h-284z" />
    <glyph glyph-name="uni252C" unicode="&#x252c;" 
d="M-20 216v72h640v-72h-284v-504h-72v504h-284z" />
    <glyph glyph-name="uni2534" unicode="&#x2534;" 
d="M-20 216v72h284v504h72v-504h284v-72h-640z" />
    <glyph glyph-name="uni253C" unicode="&#x253c;" 
d="M-20 216v72h284v504h72v-504h284v-72h-284v-504h-72v504h-284z" />
    <glyph glyph-name="uni2550" unicode="&#x2550;" 
d="M-20 144v72h640v-72h-640zM-20 288v72h640v-72h-640z" />
    <glyph glyph-name="uni2551" unicode="&#x2551;" 
d="M192 -288v1080h72v-1080h-72zM336 -288v1080h72v-1080h-72z" />
    <glyph glyph-name="uni2552" unicode="&#x2552;" 
d="M264 -288v648h356v-72h-284v-72h284v-72h-284v-432h-72z" />
    <glyph glyph-name="uni2553" unicode="&#x2553;" 
d="M620 288v-72h-212v-504h-72v504h-72v-504h-72v576h428z" />
    <glyph glyph-name="uni2554" unicode="&#x2554;" 
d="M192 -288v648h428v-72h-356v-576h-72zM336 -288v504h284v-72h-212v-432h-72z" />
    <glyph glyph-name="uni2555" unicode="&#x2555;" 
d="M336 360v-648h-72v432h-284v72h284v72h-284v72h356z" />
    <glyph glyph-name="uni2556" unicode="&#x2556;" 
d="M-20 216v72h428v-576h-72v504h-72v-504h-72v504h-212z" />
    <glyph glyph-name="uni2557" unicode="&#x2557;" 
d="M-20 144v72h284v-504h-72v432h-212zM-20 288v72h428v-648h-72v576h-356z" />
    <glyph glyph-name="uni2558" unicode="&#x2558;" 
d="M264 144v648h72v-432h284v-72h-284v-72h284v-72h-356z" />
    <glyph glyph-name="uni2559" unicode="&#x2559;" 
d="M192 216v576h72v-504h72v504h72v-504h212v-72h-428z" />
    <glyph glyph-name="uni255A" unicode="&#x255a;" 
d="M192 144v648h72v-576h356v-72h-428zM336 288v504h72v-432h212v-72h-284z" />
    <glyph glyph-name="uni255B" unicode="&#x255b;" 
d="M336 792v-648h-356v72h284v72h-284v72h284v432h72z" />
    <glyph glyph-name="uni255C" unicode="&#x255c;" 
d="M408 792v-576h-428v72h212v504h72v-504h72v504h72z" />
    <glyph glyph-name="uni255D" unicode="&#x255d;" 
d="M-20 144v72h356v576h72v-648h-428zM-20 288v72h212v432h72v-504h-284z" />
    <glyph glyph-name="uni255E" unicode="&#x255e;" 
d="M620 216v-72h-284v-432h-72v1080h72v-432h284v-72h-284v-72h284z" />
    <glyph glyph-name="uni255F" unicode="&#x255f;" 
d="M192 -288v1080h72v-1080h-72zM336 -288v1080h72v-504h212v-72h-212v-504h-72z" />
    <glyph glyph-name="uni2560" unicode="&#x2560;" 
d="M192 -288v1080h72v-1080h-72zM336 -288v504h284v-72h-212v-432h-72zM336 288v504h72v-432h212v-72h-284z" />
    <glyph glyph-name="uni2561" unicode="&#x2561;" 
d="M-20 144v72h284v72h-284v72h284v432h72v-1080h-72v432h-284z" />
    <glyph glyph-name="uni2562" unicode="&#x2562;" 
d="M-20 216v72h212v504h72v-1080h-72v504h-212zM336 -288v1080h72v-1080h-72z" />
    <glyph glyph-name="uni2563" unicode="&#x2563;" 
d="M336 -288v1080h72v-1080h-72zM264 792v-504h-284v72h212v432h72zM264 216v-504h-72v432h-212v72h284z" />
    <glyph glyph-name="uni2564" unicode="&#x2564;" 
d="M-20 144v72h640v-72h-284v-432h-72v432h-284zM-20 288v72h640v-72h-640z" />
    <glyph glyph-name="uni2565" unicode="&#x2565;" 
d="M-20 216v72h640v-72h-212v-504h-72v504h-72v-504h-72v504h-212z" />
    <glyph glyph-name="uni2566" unicode="&#x2566;" 
d="M-20 144v72h284v-504h-72v432h-212zM-20 288v72h640v-72h-640zM336 -288v504h284v-72h-212v-432h-72z" />
    <glyph glyph-name="uni2567" unicode="&#x2567;" 
d="M-20 144v72h640v-72h-640zM-20 288v72h284v432h72v-432h284v-72h-640z" />
    <glyph glyph-name="uni2568" unicode="&#x2568;" 
d="M-20 216v72h212v504h72v-504h72v504h72v-504h212v-72h-640z" />
    <glyph glyph-name="uni2569" unicode="&#x2569;" 
d="M-20 144v72h640v-72h-640zM-20 288v72h212v432h72v-504h-284zM336 288v504h72v-432h212v-72h-284z" />
    <glyph glyph-name="uni256A" unicode="&#x256a;" 
d="M-20 144v72h284v72h-284v72h284v432h72v-432h284v-72h-284v-72h284v-72h-284v-432h-72v432h-284z" />
    <glyph glyph-name="uni256B" unicode="&#x256b;" 
d="M-20 216v72h212v504h72v-504h72v504h72v-504h212v-72h-212v-504h-72v504h-72v-504h-72v504h-212z" />
    <glyph glyph-name="uni256C" unicode="&#x256c;" 
d="M-20 144v72h284v-504h-72v432h-212zM-20 288v72h212v432h72v-504h-284zM336 -288v504h284v-72h-212v-432h-72zM336 288v504h72v-432h212v-72h-284z" />
    <glyph glyph-name="upblock" unicode="&#x2580;" 
d="M0 252v540h600v-540h-600z" />
    <glyph glyph-name="dnblock" unicode="&#x2584;" 
d="M0 -288v540h600v-540h-600z" />
    <glyph glyph-name="block" unicode="&#x2588;" 
d="M0 -288v1080h600v-1080h-600z" />
    <glyph glyph-name="lfblock" unicode="&#x258c;" 
d="M0 -288v1080h300v-1080h-300z" />
    <glyph glyph-name="rtblock" unicode="&#x2590;" 
d="M300 -288v1080h300v-1080h-300z" />
    <glyph glyph-name="ltshade" unicode="&#x2591;" 
d="M0 -288v98h100v-98h-100zM200 -288v98h100v-98h-100zM400 -288v98h100v-98h-100zM0 694v98h100v-98h-100zM200 694v98h100v-98h-100zM400 694v98h100v-98h-100zM0 497v98h100v-98h-100zM200 497v98h100v-98h-100zM400 497v98h100v-98h-100zM0 -91v98h100v-98h-100z
M200 -91v98h100v-98h-100zM400 -91v98h100v-98h-100zM0 105v98h100v-98h-100zM200 105v98h100v-98h-100zM400 105v98h100v-98h-100zM0 301v98h100v-98h-100zM200 301v98h100v-98h-100zM400 301v98h100v-98h-100z" />
    <glyph glyph-name="shade" unicode="&#x2592;" 
d="M0 -288v97h99v-97h-99zM200 -288v97h99v-97h-99zM400 -288v97h99v-97h-99zM0 695v97h99v-97h-99zM200 695v97h99v-97h-99zM400 695v97h99v-97h-99zM0 499v97h99v-97h-99zM200 499v97h99v-97h-99zM400 499v97h99v-97h-99zM0 -92v97h99v-97h-99zM200 -92v97h99v-97h-99z
M400 -92v97h99v-97h-99zM0 105v97h99v-97h-99zM200 105v97h99v-97h-99zM400 105v97h99v-97h-99zM0 302v97h99v-97h-99zM200 302v97h99v-97h-99zM400 302v97h99v-97h-99zM100 597v97h99v-97h-99zM300 597v97h99v-97h-99zM500 597v97h100v-97h-100zM100 400v97h99v-97h-99z
M300 400v97h99v-97h-99zM500 400v97h100v-97h-100zM500 203v97h100v-97h-100zM300 203v97h99v-97h-99zM100 203v97h99v-97h-99zM100 6v97h99v-97h-99zM300 6v97h99v-97h-99zM500 6v97h100v-97h-100zM500 -190v97h100v-97h-100zM300 -190v97h99v-97h-99zM100 -190v97h99v-97
h-99z" />
    <glyph glyph-name="dkshade" unicode="&#x2593;" 
d="M138 -92h-138v97h138v-97zM200 -190h-138v97h138v-97zM200 6h-138v97h138v-97zM138 -288h-138v97h138v-97zM338 -92h-138v97h138v-97zM400 -190h-138v97h138v-97zM400 6h-138v97h138v-97zM338 -288h-138v97h138v-97zM538 -92h-138v97h138v-97zM600 -190h-138v97h138v-97z
M600 6h-138v97h138v-97zM538 -288h-138v97h138v-97zM200 597h-138v97h138v-97zM138 695h-138v97h138v-97zM138 499h-138v97h138v-97zM400 597h-138v97h138v-97zM338 695h-138v97h138v-97zM338 499h-138v97h138v-97zM600 597h-138v97h138v-97zM538 695h-138v97h138v-97z
M538 499h-138v97h138v-97zM138 105h-138v97h138v-97zM200 203h-138v97h138v-97zM338 105h-138v97h138v-97zM400 203h-138v97h138v-97zM538 105h-138v97h138v-97zM600 203h-138v97h138v-97zM138 302h-138v97h138v-97zM200 400h-138v97h138v-97zM338 302h-138v97h138v-97z
M400 400h-138v97h138v-97zM538 302h-138v97h138v-97zM600 400h-138v97h138v-97z" />
    <glyph glyph-name="uni25A0" unicode="&#x25a0;" 
d="M100 100v400h400v-400h-400z" />
    <glyph glyph-name="filledrect" unicode="&#x25ac;" 
d="M100 260v200h400v-200h-400z" />
    <glyph glyph-name="triagup" unicode="&#x25b2;" 
d="M46 122l254 474l254 -474h-508z" />
    <glyph glyph-name="uni25B6" unicode="&#x25b6;" 
d="M63 106v508l474 -254z" />
    <glyph glyph-name="triagdn" unicode="&#x25bc;" 
d="M300 122l-254 474h508z" />
    <glyph glyph-name="uni25C0" unicode="&#x25c0;" 
d="M537 614v-508l-474 254z" />
    <glyph glyph-name="lozenge" unicode="&#x25ca;" 
d="M537 361l-219 -407h-35l-220 407l219 408h35zM496 360l-175 322q-4 7 -21 48h-2q-8 -21 -21 -48l-173 -319l175 -324q14 -26 20 -47h3q4 15 19 47z" />
    <glyph glyph-name="circle" unicode="&#x25cb;" 
d="M71 252q0 94 67.5 161.5t161.5 67.5t161.5 -67.5t67.5 -161.5t-67.5 -161.5t-161.5 -67.5t-161.5 67.5t-67.5 161.5zM113 252q0 -77 55 -132t132 -55t132 55t55 132t-55 132t-132 55t-132 -55t-55 -132z" />
    <glyph glyph-name="invbullet" unicode="&#x25d8;" 
d="M0 -288v1080h600v-1080h-600zM177 252q0 -52 35.5 -87.5t87.5 -35.5q51 0 87 36t36 87q0 50 -36.5 86.5t-86.5 36.5t-86.5 -36.5t-36.5 -86.5z" />
    <glyph glyph-name="invcircle" unicode="&#x25d9;" 
d="M0 -288v1080h600v-1080h-600zM71 252q0 -94 67.5 -161.5t161.5 -67.5t161.5 67.5t67.5 161.5t-67.5 161.5t-161.5 67.5t-161.5 -67.5t-67.5 -161.5zM131 252q0 69 49.5 118.5t119.5 49.5t119.5 -49.5t49.5 -118.5q0 -70 -49.5 -119t-119.5 -49t-119.5 49t-49.5 119z" />
    <glyph glyph-name="smileface" unicode="&#x263a;" 
d="M10 330q0 122 84 206t206 84t206 -84t84 -206t-84 -206t-206 -84t-206 84t-84 206zM300 605q-115 0 -194.5 -79.5t-79.5 -195.5t79.5 -195.5t194.5 -79.5t194.5 79.5t79.5 195.5t-79.5 195.5t-194.5 79.5zM132 429q0 21 14.5 35.5t35.5 14.5t35.5 -14.5t14.5 -35.5
t-14.5 -35.5t-35.5 -14.5t-35.5 14.5t-14.5 35.5zM368 429q0 21 14.5 35.5t35.5 14.5t35.5 -14.5t14.5 -35.5t-14.5 -35.5t-35.5 -14.5t-35.5 14.5t-14.5 35.5zM300 110q-89 0 -140 62q-26 31 -16 60q5 17 15 7q1 -2 3 -5q50 -90 138 -90t138 90q9 16 17 2q11 -21 -7 -52
q-3 -6 -8 -12q-51 -62 -140 -62z" />
    <glyph glyph-name="invsmileface" unicode="&#x263b;" 
d="M10 330q0 122 84 206t206 84t206 -84t84 -206t-84 -206t-206 -84t-206 84t-84 206zM132 429q0 -21 14.5 -35.5t35.5 -14.5t35.5 14.5t14.5 35.5t-14.5 35.5t-35.5 14.5t-35.5 -14.5t-14.5 -35.5zM368 429q0 -21 14.5 -35.5t35.5 -14.5t35.5 14.5t14.5 35.5t-14.5 35.5
t-35.5 14.5t-35.5 -14.5t-14.5 -35.5zM300 110q89 0 140 62q26 31 16 60q-5 17 -15 7q-1 -2 -3 -5q-50 -90 -138 -90t-138 90q-9 16 -17 2q-11 -21 7 -52q3 -6 8 -12q51 -62 140 -62z" />
    <glyph glyph-name="sun" unicode="&#x263c;" 
d="M518 513l-88 -88q29 -32 36 -90h124v-32h-125q-7 -52 -38 -84l88 -88l-23 -23l-87 87q-36 -34 -89 -42v-123h-32v123q-58 8 -89 37l-87 -87l-22 23l87 87q-34 37 -39 90h-124v32h124q-1 57 35 96l-87 87l22 24l88 -88q35 27 92 31v125h32v-125q48 -2 91 -37l88 87z
M166 319q0 -58 36 -96t95 -38q61 0 99 38.5t38 95.5q-2 58 -39 96t-97 38q-60 -1 -96 -39t-36 -95z" />
    <glyph glyph-name="female" unicode="&#x2640;" 
d="M318 0h-36v171h-126v36h126v109q-65 11 -104.5 57t-39.5 107q0 67 47.5 113.5t114.5 46.5q68 0 115 -46.5t47 -113.5q0 -61 -39 -107t-105 -57v-109h126v-36h-126v-171zM170 478q0 -55 37.5 -92.5t91.5 -37.5q55 0 93 37.5t38 92.5t-38 92.5t-93 37.5q-54 0 -91.5 -37.5
t-37.5 -92.5z" />
    <glyph glyph-name="male" unicode="&#x2642;" 
d="M305 140q38 39 38 92t-38 91q-39 40 -92.5 40t-91.5 -39q-39 -39 -39 -92t40 -92q38 -38 91 -38t92 38zM315 359l170 171l-104 38v2h170v-170h-2l-39 104l-170 -170q38 -55 33.5 -115t-47.5 -103q-47 -47 -114 -46t-114 48q-48 48 -48 114t47 113q43 44 102.5 48.5
t115.5 -34.5z" />
    <glyph glyph-name="spade" unicode="&#x2660;" 
d="M542 0h-484l4 22q229 7 229 247h-2q-22 -50 -62 -80t-93 -30t-92 37.5t-39 90.5q0 74 82 150l51 45q69 59 108 109.5t55 120.5h2q16 -70 55 -120.5t108 -109.5q71 -61 93 -89q40 -52 40 -106q0 -53 -39 -90.5t-92 -37.5t-93 30t-62 80h-2q0 -240 229 -247z" />
    <glyph glyph-name="uni2662" unicode="&#x2662;" 
d="M300 712q108 -166 297 -362q-189 -196 -297 -362q-108 166 -297 362q189 196 297 362zM300 11q94 147 277 339q-183 192 -277 339q-94 -147 -277 -339q183 -192 277 -339z" />
    <glyph glyph-name="club" unicode="&#x2663;" 
d="M503 0h-406l6 21q46 11 77 26t59 44.5t42 80t14 124.5h-2q-18 -54 -60 -96t-93 -42q-62 0 -99.5 49t-37.5 113q0 55 30.5 107.5t78.5 52.5q38 0 86 -30q-32 62 -32 106q0 59 36.5 107.5t97.5 48.5t97.5 -48.5t36.5 -107.5q0 -44 -32 -106q48 30 86 30q48 0 78.5 -52.5
t30.5 -107.5q0 -64 -37.5 -113t-99.5 -49q-51 0 -93 42t-60 96h-2q0 -74 14 -124.5t42 -80t59 -44.5t77 -26z" />
    <glyph glyph-name="heart" unicode="&#x2665;" 
d="M301 -12h-2q-14 56 -45.5 118t-59 101l-75.5 103q-35 47 -55.5 79t-40.5 81.5t-20 92.5q0 63 40.5 106t103.5 43q56 0 98 -43.5t54 -101.5h2q12 58 54 101.5t98 43.5q63 0 103.5 -43t40.5 -106q0 -43 -20 -92.5t-40.5 -81.5t-55.5 -79l-75.5 -103t-59 -101t-45.5 -118z
" />
    <glyph glyph-name="diamond" unicode="&#x2666;" 
d="M300 712q108 -166 297 -362q-189 -196 -297 -362q-108 166 -297 362q189 196 297 362z" />
    <glyph glyph-name="musicalnote" unicode="&#x266a;" 
d="M286 181v531h44v-63l23 -29l39 -46q51 -61 76.5 -118.5t25.5 -127.5q0 -98 -59 -166h-29q43 73 43 154q0 61 -31.5 116.5t-87.5 64.5v-314q0 -84 -43 -128.5t-112 -44.5q-32 0 -50.5 16.5t-18.5 47.5q0 47 38.5 82.5t85.5 35.5q31 0 56 -11z" />
    <glyph glyph-name="uni266C" unicode="&#x266c;" 
d="M545 202v280l-309 -93v-241q0 -87 -43 -131t-113 -44q-31 0 -50 16.5t-19 46.5q0 48 38.5 83t86.5 35q31 0 56 -11v469l397 112v-517q0 -87 -43 -131t-113 -44q-31 0 -50 16.5t-19 46.5q0 48 38.5 83t86.5 35q31 0 56 -11zM236 468l309 94v72l-309 -94v-72z" />
    <glyph glyph-name="uni0044_uni004D" unicode="&#xe001;" 
d="M11 0v600h117q76 0 113 -85q29 -73 29 -215q0 -170 -38 -233q-37 -67 -113 -67h-108zM51 560v-520h38q24 0 38 1.5t31.5 8t29.5 21.5t20 39q22 65 22 190q0 134 -24 196q-9 23 -21 36.5t-29 19t-30 7t-37 1.5h-38zM448 290l88 310h53v-600h-40v521h-2l-99 -334l-99 334
l-2 -2v-519h-40v600h53z" />
    <glyph glyph-name="zero.slash" unicode="&#xf638;" 
d="M162 176l249 446q-40 72 -111 72q-33 0 -58 -14t-47 -48.5t-34 -103t-12 -168.5q0 -119 13 -184zM430 576l-253 -452q16 -43 48 -70.5t75 -27.5q38 0 65.5 19t44 49.5t26 76t12.5 89.5t3 100q0 144 -21 216zM498 360q0 -159 -24 -231q-21 -65 -65.5 -104t-108.5 -39
q-62 0 -106 37t-65 98q-27 77 -27 239q0 158 24 231q21 65 65 104t109 39q62 0 106 -37t65 -98q27 -78 27 -239z" />
    <glyph glyph-name="fi" unicode="&#xfb01;" 
d="M189 529h282v-529h-47v489h-235v-489h-47v489h-100v40h100v35q0 82 45.5 126t108.5 44q11 0 22.5 -1.5t20 -2.5t22 -5t19.5 -6t21.5 -8t19 -7.5t21 -8.5t19.5 -8v-54q-7 3 -36.5 19t-43 22t-37.5 13t-44 7q-111 0 -111 -124v-41z" />
    <glyph glyph-name="fl" unicode="&#xfb02;" 
d="M439 0v646q-5 2 -21.5 10.5t-24 11.5t-22.5 9.5t-24.5 9.5t-22.5 5.5t-25 2.5q-55 1 -83 -32t-28 -93v-41h148v-39h-148v-490h-47v490h-100v40h100v35q0 82 46 126.5t108 42.5q40 -1 78 -13t113 -44v-677h-47z" />
    <glyph glyph-name="f_i" 
d="M189 529h282v-529h-47v489h-235v-489h-47v489h-100v40h100v35q0 82 45.5 126t108.5 44q11 0 22.5 -1.5t20 -2.5t22 -5t19.5 -6t21.5 -8t19 -7.5t21 -8.5t19.5 -8v-54q-7 3 -36.5 19t-43 22t-37.5 13t-44 7q-111 0 -111 -124v-41z" />
    <glyph glyph-name="f_l" 
d="M439 0v646q-5 2 -21.5 10.5t-24 11.5t-22.5 9.5t-24.5 9.5t-22.5 5.5t-25 2.5q-55 1 -83 -32t-28 -93v-41h148v-39h-148v-490h-47v490h-100v40h100v35q0 82 46 126.5t108 42.5q40 -1 78 -13t113 -44v-677h-47z" />
    <glyph glyph-name="a.superior" 
d="M395 610v-120q0 -16 1.5 -28t6 -28.5t6.5 -28.5l-36 -5l-11 45q-41 -44 -88 -44q-43 0 -69.5 29t-26.5 73q0 52 28 84.5t80 32.5q32 0 71 -12q0 92 -59 92q-35 0 -88 -27l-8 45q73 16 97 16q43 0 69.5 -31t26.5 -93zM355 495v75q-44 16 -67 16q-35 0 -52.5 -24t-17.5 -60
q0 -27 15 -47t41 -20q41 0 81 60zM413 349v-34h-237v34h237z" />
    <glyph glyph-name="o.superior" 
d="M419 349v-34h-238v34h238zM300 401q-64 0 -97.5 45t-33.5 121q0 70 32 118.5t99 48.5q64 0 97.5 -46.5t33.5 -120.5q0 -73 -33 -119.5t-98 -46.5zM300 435q50 0 70.5 38.5t20.5 93.5q0 133 -91 133t-91 -133q0 -132 91 -132z" />
    <glyph glyph-name="one.superior" 
d="M322 734v-375h72v-32h-186v32h74v327l-78 -24v35z" />
    <glyph glyph-name="two.superior" 
d="M230 370h181v-32h-221q-1 61 15 98t68 81q3 3 15.5 13t19 16l18 16.5t17.5 18.5l13.5 18.5t10.5 21t3 20.5q0 28 -16 44.5t-44 16.5q-33 0 -51 -23t-20 -58h-40q3 51 32 82t80 31q46 0 72.5 -25t26.5 -70q0 -14 -5.5 -29t-11 -25t-20 -25.5t-20.5 -21l-24.5 -22
t-21.5 -18.5q-27 -24 -39.5 -37.5t-24.5 -37.5t-13 -53z" />
    <glyph glyph-name="three.superior" 
d="M272 531v32q35 -2 61 18.5t26 55.5q0 28 -20.5 46.5t-49.5 18.5q-24 0 -44 -16.5t-31 -39.5l-34 19q38 69 114 69q43 0 74 -29t31 -72q0 -53 -54 -84q71 -31 71 -102q0 -52 -34 -84.5t-86 -32.5q-42 0 -70 18t-52 55l35 21q29 -62 87 -62q35 0 57.5 22t22.5 57
q0 90 -104 90z" />
  </font>
</defs>
</svg>
